<?xml version="1.0" encoding="utf-8"?>
<!-- Generator: Adobe Illustrator 24.2.3, SVG Export Plug-In . SVG Version: 6.00 Build 0)  -->
<svg version="1.1" xmlns="http://www.w3.org/2000/svg" xmlns:xlink="http://www.w3.org/1999/xlink" x="0px" y="0px"
	 viewBox="0 0 489.6 2628" style="enable-background:new 0 0 489.6 2628;" xml:space="preserve">
<g id="Ginny_1_" >
	<g id="Ginny" transform="matrix(3.61201,0,0,3.61201,42,-229.347)">
		<path d="M467.5,756.6c-1.6-0.6-3.4-2.8-4-4.8c-1.6-5.7-0.9-102.5,1.1-161.1c2.5-71.2,2.5-275,0.1-276.5c-3-1.9-1.7-32.8-1.7-32.8
			l0.7-6c0.4-3.3-0.5-14.4,0.1-20c1-9,1-8-0.5-19.3c-0.7-5.1-1-17.1-0.7-26.7c0.3-9.5,0.4-19.1,0.3-21.3c-0.3-5.3-0.2-9.4,0.5-34.7
			c0.3-11.7,0.2-22.2-0.3-23.3c-0.5-1.1-0.3-3.5,0.4-5.3c0.7-1.8,1.4-7.5,1.6-12.7c0.3-13.9,6.3-23.3,14.8-23.3
			c7.5,0,12.5,8.8,14.1,25.3c1.6,15.8,1.6,16.5-0.9,18.2c-2,1.4-1.9,2.1,0.6,7c3.5,6.9,3.5,12.7,0,18.4c-2.3,3.7-2.5,4.9-1.2,6.5
			c2.2,2.6,1.8,14.4-0.6,19c-1.7,3.3-1.6,4.2,0.6,8.3c3,5.7,3.3,14.4,0.6,18.2c-1.7,2.4-1.7,3.6-0.2,8c2,5.7,0.9,12.3-2.4,15.1
			c-1.6,1.3-1.7,2.2-0.3,4.5c2.1,3.7,3.1,70.3,1.1,75.4c-0.8,2-1.7,29.3-2.1,65.5c-1.3,106.6-2.1,150.9-2.7,162.7
			c-0.4,6.2-1,29.3-1.4,51.3c-1.1,57.5-4.2,147.1-5.4,154.8c-0.6,3.6-4.1,8.1-7.9,10.2C471.1,757.4,469.1,757.2,467.5,756.6
			L467.5,756.6z"/>
	</g>
</g>
<g id="Neville_1_">
	<g id="Neville" transform="matrix(3.61201,0,0,3.61201,51,-229.347)">
		<path d="M318.5,630.3c0.7-59.3,3.3-343.5,3.7-366.2c0.6-32.3,0.9-61.1,0.8-64c-0.2-5.1-0.2-15.6-0.1-24c0.2-12.7-1-24.9-3.1-31.4
			c-3.3-9.8-3.4-28.2-0.2-34.5c1.3-2.5,2.3-5.5,2.3-6.7c0-1.2,0.8-3,1.7-4.1c2.2-2.7,8.7-6,9.8-4.9c0.5,0.5,3.3-0.6,6.3-2.3
			c9.5-5.4,11.1-5.5,14.1-0.5c4.2,6.9,3.7,19.2-1.4,32.1c-2.2,5.7-3.6,11.1-3.1,12c1,1.7,3.5,28.6,3.4,37.6
			c-0.1,16.6-1.4,43.3-2.1,44.4c-1.1,1.8-5,63.8-5.5,88.9c-0.2,11-0.8,29.6-1.2,41.3c-0.5,14.3-1,31.9-1.5,51
			c-0.7,65.1-2,152.5-3.7,213.7c0.1,18.5-0.7,51.4-2.3,89.3c-1.6,40.7-3,40.2-4.7,44.7c-3.1,8.4-13.2,6.5-14.8,2.5
			c-3-7.2-1.6-20.2-1.5-32.7C315.5,715.3,318.3,648.3,318.5,630.3z"/>
	</g>
</g>
<g id="Death-Eaters_1_">
	<g id="Death-Eaters" transform="matrix(3.62356,0,0,3.62356,35.1066,-234.736)" >
		<path d="M188.9,746c-3.6,14.1-9.8,9.9-11.8,1.3c-4.3-18.4-0.3-63.8,1.1-89.1c0.8-14.9-1.7-29.4-1.9-32.9
			c-0.6-11.6,5.6-29.1,4.3-42.8c-0.7-7.6-3.7-16-4.2-24.2c-0.4-8.1,2.8-19.1,2.4-27.5c-0.2-5.1-1.9-11.4-2.1-16.5
			c-0.4-12.4,4.4-25.4,4-37.4c-0.4-12.6-4.4-24.1-4.5-35.6c0-6.2,2.8-12.8,2.8-18.5c0.1-12.9-1.3-23.4-1.8-35.2
			c-0.9-22.1,0.7-43.1,0-59.4c-1-21.4-4.2-35-3.9-36.4c0.6-3.1,4.6-1.8,4-2.4c-0.1-0.1-1.7-4-1.7-10.2c0-2,1.4-4,1.7-6.3
			c0.2-1.6-0.8-3.5-0.6-5.3c0.8-5.9,1.7-12.7,1.9-20.2c0-1.4,0.8-2.7,0.8-4.1c0-1.2-0.6-2.5-0.6-3.8c0.1-4.3,0.2-8.6,0.3-13.1
			c0-1.3,1.2-2.3,1.2-3.7c0-1.9-1-4.2-1-6.2c0.1-4.6,0.2-9.3,0.3-13.8c0-1.6,1.3-2.9,1.3-4.4c0-1.5-1.2-3.3-1.2-4.7
			c0.1-4.6,0.2-9.1,0.3-13.3c0-2,1.9-3.9,2-5.8c0.1-2.2-1.7-4.3-1.7-6.3c0.3-11.1,0.7-18.8,1.3-20.2c1.8-4.6-12.6-2.3-13.6-21.1
			c-1.5-27.7,12.5-32.4,20.8-35.5c7.2-2.6,19-2.8,24.1,1.3c8.5,6.8,7.9,10.9,8.2,15.3c0.3,4.7,7.1,1.9,7.7,15.7
			c0.3,6.6,0.5,14.4-3.3,18.8c-4,4.7-7.6,3.1-7.2,7.3c0.3,3.4,0,3,0.4,13.4c0.1,2.6,1.1,7.2-1.8,10.4c-0.2,0.3-1.5,5.6-14.7,0.4
			c-1.2-0.5-1.1,3.4-1.4,4.5c-0.4,1.6-2.4,3.2-2.6,5c-0.3,3.4,1.6,3.6,1.3,11.9c0,1-1.3,3.6-1.2,4.5c0.1,1.3,0.9,2.6,1.1,4
			c0.4,5-0.1,10.7-0.1,16.5c0,1-0.5,2.1-0.4,3c0.1,0.7,0.7,1.3,0.8,2c0.5,4.1,1.4,8.1,0.7,13c-0.1,0.8-0.6,2.6-0.6,4.7
			c0,0.8,0.9,2.2,0.9,3.1c0,3-0.1,5.8-0.3,9.6c-0.2,3.2-2,7.3-1.9,10.6c0.1,2.5,2.9,2.7,3.2,4.9c0.9,7.2-0.2,14.7-0.4,15.1
			c-1.3,3.9,1.2,1.4,2.1,4c1.1,3.3-0.4,13-1.5,20c-0.9,5.1,1.1,17.8,0.5,36.7c-0.1,5-2.9-1.3-2.4,40.4c0.1,11.7-1.5,23.3-1.5,32.5
			c-0.1,10.2,1.3,17.5,1.3,21.2c0.1,44.8-3.5,59.5-3.8,69c-0.3,10,1.2,26.2,1,41.7c-0.1,7.7-1,24.8-1.4,38
			c-0.3,10.4-1.8,23.1-2.1,32.8c-0.4,16.6,1.2,33.3,1,48.9c-0.1,12.8-1.5,25.1-1.8,35.7C191.8,730.8,189.5,743.6,188.9,746z"/>
	</g>
</g>
<g id="McGonagall_1_">
	<g id="McGonagall" transform="matrix(3.61201,0,0,3.61201,26,-229.347)">
		<path d="M45.2,755.3c-0.5-0.8-0.5-12.3-0.1-25.7c2.2-67.7,3.4-372.3,1.6-378c-0.6-1.8-0.4-3.8,0.5-4.9c1-1.1,1.9-16.7,2.7-43.6
			c0.7-23,1.6-46.5,1.9-52.3c0.6-9.6,0.4-10.8-2.6-14.8c-4-5.2-4.2-8.2-0.7-10.3c2.5-1.6,2.5-1.6,0-4.9c-1.4-1.8-2.5-4.2-2.5-5.4
			c0.1-2.6,3.1-6.8,5-6.8c0.8,0,1.7-0.9,2.2-2.1c1.6-4,0.8-7.7-2.5-12c-1.8-2.4-3.3-4.8-3.3-5.2c0-0.5-1.6-2.9-3.5-5.4
			c-6.7-8.8-5.3-19.7,3.3-25.8c5.1-3.6,7.5-12.4,4.8-17.6c-3.3-6.3-3.9-14.3-1.4-17.1c2-2.2,2-2.6,0.2-4.1
			c-2.8-2.3-2.6-8.9,0.3-10.6c1.9-1.1,2.1-1.8,0.8-3.9c-2.6-4.3-3.6-12-1.7-14.3c2-2.4,16-2.7,18.4-0.4c2.2,2.2,2,9-0.4,13.6
			c-1.9,3.6-1.8,4,0.7,5.7c3.2,2.2,3.4,5.5,0.8,9.1c-1.6,2.2-1.6,2.9,0.1,4.8c2.8,3.1,2.2,13.2-0.9,16.4c-3.4,3.4-1,10.2,6.9,19.2
			c8.1,9.2,8.2,19.8,0.3,28.2C70.9,192.6,66,200,66,202c0,1.2,1.4,3.6,3.2,5.3c4.4,4.1,5.3,8.7,2.8,13.8c-1.9,3.7-1.9,4.3-0.1,5.3
			c2.9,1.6,2.5,4.8-1.4,9.9l-3.4,4.4l-0.7,55.1c-0.4,30.3-1.2,59.9-1.8,65.7c-0.6,5.8-1.2,26.7-1.3,46.5s-0.4,36.2-0.7,36.7
			c-0.3,0.4-0.9,24.8-1.4,54.1c-1.6,94.1-6,230.5-8.2,251c-0.7,6.3-1.1,7-3.9,7C47.5,756.7,45.7,756.1,45.2,755.3L45.2,755.3z"/>
	</g>
</g>
<g id="Narcissa_1_">
	<g id="Narcissa" transform="matrix(3.61201,0,0,3.61201,19,-229.347)">
		<path d="M-96.8,749.3c-0.8-2.2,0.5-57.6,1.6-68.5c1.4-13,4.9-225.2,5.1-302c0.2-85.3,0.7-88.4-3.7-93.9c-0.8-1-3.8-2.6-5.3-5.2
			c-1.8-3.2,0.6-12.3,2.5-13.9c4.5-3.9,6.1-11,3.5-16.2c-0.8-1.5-2.9-16.3-3.4-34.4c-0.5-16.4,0.6-36,1.1-41.8
			c0.6-6.9,3.1-18.6,2.7-28.2c-0.3-7.8-7.3-15.4-7.3-17.5c0.1-3.4,3.6-7,4.3-10.8c0.7-3.8-3.6-3.8,0.4-10.3c2.3-3.7,2.9-5,6.1-8.7
			c6.9-8,7-8.7,17.1,0.6c3,2.8,5,5.5,7,7.6c4.1,4.6,0.4,8,0.5,9.9c0.5,5.4,5.1,7.6,5.2,11.7c0.2,5.8-6,5.4-5.5,21.4
			c0.2,5.4,1.1,12.8,1.4,16.5c0.3,3.7,0.9,10,1.3,14c1.4,13.8,1.4,33.7,0.1,51.4c-0.5,6.9-1.2,13.4-2.1,19.2
			c-1.1,7.2-1,8.9,0.9,10.9c1.2,1.3,1.8,5.3,3.3,5.6c2.2,0.6,2.7,1.8,2.7,7.8c0,5.5-0.6,7.5-2.5,8.7c-2.5,1.6-7.3,15.4-7.7,22.4
			c-0.1,2.2-0.6,11.2-1.1,20c-0.5,8.8-1.1,21.1-1.5,27.3c-1,17-1.9,48.9-3.4,113.3c-1.3,56.8-3.3,118.8-4.6,144
			c-3.9,73.2-4.9,91.4-6.1,108.7c-1.8,26.3-2.4,29.8-5.3,31.4C-92.9,752-95.9,751.7-96.8,749.3L-96.8,749.3z"/>
	</g>
</g>
<g id="Horace_1_">
	<g id="Horace" transform="matrix(3.61201,0,0,3.61201,17,-229.347)">
		<path d="M-218.9,718.9c-0.2,7.6-0.6,33.7-4.8,33.6c-4.4,0-5.1-16.8-4.9-27.3c0.2-12,0-351.5,1.7-375.8c1.9-26.6,0.6-39.3-4.6-46.5
			c-4.9-6.7-4.8-8.2,0-10.2c2.1-0.9,4.9-2.8,6.2-4.2c2.2-2.4,2.1-2.7-1.2-5.6c-4.3-3.7-4.4-5-0.4-8.8l3.1-3l-2.4-9
			c-1.6-5.9-2.2-11.3-1.7-15.6c1.1-9.6,0.2-18.2-0.3-32.6c-0.9-26.1,2.1-52.1-1.2-53.3c-4.1-1.6-4.4-4.4-0.6-6.9
			c2.5-1.7,2.7-2.4,1.4-7.2c-0.8-2.9-1.5-9.1-1.7-13.6c-0.2-5.7-0.5-7.3-2-8.3c-0.8-0.5-16.9-13-18.8-16.5c-2-3.7-0.5-11.4,2.6-13.4
			c1.8-1.1,3.4-0.9,7.2,1.2c2.7,1.5,5.2,3.6,5.5,4.7c0.4,1.2,4.5,8.9,5.7,11.7c2.7,6.3,7.4,9,13.9,7.7c5.2-1,9.2-4.9,10.6-9.2
			c4.8-15.1,7.9-18.7,11.7-20.9c3.3-1.8,3.8-1.8,5.8,0.1c1.2,1.2,1.4,3.2,1.5,4.7c0.4,5.2-1.5,5.9-3.9,9.7
			c-2.8,4.5-9.4,14.5-12.7,20.3c-1.1,2-1.7,9.6-1.8,24.4c0,1.9,1.7,4.7,2.1,4.7c2.8,0,2.9,3,0.3,5.6c-1.4,1.4,4.4,46.6,4.1,62.4
			c-0.2,15.9-2.8,43.8-4.5,49c-0.6,1.7,5.4,5.7,2,9.7c-1.5,1.7-2.6,4.1-2.6,5.5c0,2.7,4.9,7.8,7.5,7.8c0.9,0,2.1,0.6,2.5,1.4
			c0.5,0.9,1.5,3.4-3.5,7.1c-2.9,2.1-3.6,7-3.6,10.9C-200.5,321.1-218.4,704.4-218.9,718.9z"/>
	</g>
</g>
<g id="Malfoy_1_">
	<g id="Malfoy" transform="matrix(3.61201,0,0,3.61201,12,-229.347)">
		<path d="M-375.2,745.4c-2.4-2.9-2.4-4.2,0.9-198.7c0.5-29.3,1-94.6,1.1-145c0.1-73-0.2-91.7-1.5-91.7c-2.2,0-4.3-4.1-3.4-6.7
			c0.4-1.1,1.8-2.8,3.2-3.7c3.6-2.6,3.5-14.9-0.2-18.3c-3.5-3.1-3.4-6.7,0.2-9.2c2.8-1.9,2.9-3.1,3.4-29.7
			c0.3-15.2,1.1-51.3,1.8-80.2l1.3-52.5l4.4-9.5c2.4-5.2,5.5-10.4,6.8-11.5c2.2-1.8,2.7-1.6,6.1,2.5c2,2.4,5,8.6,6.7,13.7
			c3,9.2,3,9.8,2.1,64.2c-1.5,96.9-1.5,100.5,1.3,105.6c2.4,4.5,2.4,4.6-0.5,7.7c-4,4.3-4.2,15.4-0.3,19c3.4,3,3.4,6.1,0.1,10.2
			c-2.4,3-2.6,5.8-2.7,33.2c-0.1,16.5-0.4,32-0.8,34.6c-0.3,2.6-1.2,24.5-2,48.7c-0.7,24.2-1.7,50.9-2,59.3
			c-0.4,8.4-1.6,41.1-2.6,72.7c-1.1,31.5-2.6,68.7-3.3,82.7c-3.8,71.5-5.6,100.2-6.2,102.3C-362.2,748.1-372.7,748.3-375.2,745.4
			L-375.2,745.4z"/>
	</g>
</g>
<g id="Snape_1_">
	<g id="Snape" transform="matrix(3.61201,0,0,3.61201,5,-229.347)">
		<path d="M-511,753.8c-2.8-0.8-4.5-2.2-5-4.1c-1-4.7-1.5-69-0.5-69c0.5,0,0.9-21.7,1-48.3c0-26.6,0.4-58.8,0.8-71.7
			s1.6-65.3,2.7-116.7s2-107.7,2.7-125.3c1-23.7,2.4-37.4,1-37.7c-1.1-0.3-1.1-2.4-0.9-7.8c0.3-10.4-0.2-10.1-1.5-10.3
			c-0.5-0.1-0.8-1.2-0.8-1.7c0-7.3,0.3-15.5,0.4-23.8c0.1-13.2,0.3-30.5,0.3-38.3c0-7.9,1.4-86.6,3.7-88.3c1-0.8,2.6-5.1,3.6-9.7
			c1-4.6,2.4-9.2,3.2-10.4c1.5-2.1,9.9-3.1,12.5-1.5c0.8,0.5,2.2,5.1,3.1,10.3c0.9,5.2,2.6,10.5,3.8,11.8c1.8,2.1,2.1,6.8,1.9,32.9
			c-0.4,53.1-2.5,103.9-3,116.5c-0.1,1.8,0.4,3.1-0.6,3.2c-2.7,0-1.9-0.5-1.8,7.5c0,4.1,0.3,10.3-1,10.4c-3.6,0.3-2.3-5.2-3.4,72.9
			c-0.4,31.5-1.7,66.6-2.1,78c-0.4,11.4-1.3,40.8-2,65.3c-0.7,24.6-1.6,54-2,65.3s-1.9,57.9-3.4,103.3c-1.5,45.5-2.9,83.4-3.2,84.2
			C-502.3,753.8-506.5,755-511,753.8z"/>
	</g>
</g>
<g id="Sirius">
	<g id="Sirius-Black" transform="matrix(3.61201,0,0,3.61201,5,-229.347)">
		<path d="M-655.8,759.7c-2.4-1.5-2.7-47.8-0.8-107.6c4.2-132.5,5.5-216.8,4.7-306.7c-0.3-39.6-0.7-112-0.8-161
			c-0.2-88.8-0.2-89,2.6-91.8c3.6-3.6,12.2-4.7,19.8-2.6c10.3,2.9,10.2,2.3,10.1,50.9c-0.1,23.5-0.4,43.2-0.7,43.7
			c-0.3,0.5-0.6,17.1-0.7,36.8s-0.7,50.3-1.3,67.9c-1.7,44.2-2.5,71.8-3.4,110c-0.4,18-1.6,49.5-2.7,70
			c-3.7,70.2-4.4,82.7-5.7,112.7c-2.1,45.1-2.8,57.1-4.2,66.9c-0.7,4.9-1.2,18.8-1.2,31c0,21.2-2,64.8-3.5,73.8
			C-644.6,759.5-651.1,762.7-655.8,759.7z"/>
	</g>
</g>
<g id="Dumbeldore">
	<g id="Dumbledore" transform="matrix(3.61201,0,0,3.61201,5,-229.347)">
		<path d="M-785,759.5c-1.3,0.8-6.3,1.9-8.3-0.2c-1.8-1.9-2.8-61.3-3.9-63c-4.1-6.3-3.6-26.8,0.7-31.1c0.5-0.5,1-2.1,1-3.4
			c0-2.6,1.2-67.9,1.4-76.2c0.2-8.2-0.2-10.8-2-12.8c-2.9-3.2-4.7-10.6-4.7-19.7c0-5.6,0.6-7.6,3.3-10.3c1.8-1.8,3.3-3.9,3.3-4.6
			s0.9-1.6,2-2c1.1-0.4,0.5-7.6,0.6-9.8c0-2.9,2.3-51.9,2.2-64.6c0-2.1-1.1-9.9-2.5-11.5c-5.8-6.6-9.4-17-4.9-28.1
			c2.4-5.8,8.2-11.1,8-23.2c-0.1-5.4,1.6-24,0.6-41.3c-1.6-29.1-5.6-21.8-7.9-27.9c-2.7-7.2-2-10.6-2-11.7c0-1.5,0.2-13.2,5-17.6
			c4.2-3.9,4.2-3.5,5.2-23.9c0.6-11.7-0.7-21.4-1.1-29c-1-19.1-4-17.4-5.2-18.4c-2.6-2.4-3.9-28.2-3.9-29.3c0-1.5,9.3-7.7,9.4-12.2
			c0-5.3,0.2-13.1-0.4-29.1c-0.2-4.1-6.4-9.4-7-21.9c-0.4-8.5,8.7-17,8-19.1c-0.5-1.6-1.6-5.3-2.5-8.3c-0.8-3-2.6-6.5-3.9-7.8
			c-3-3-2.9-5.5,0.3-8.8c2.9-2.9,4.4-3.1,8.7-1.4c1.8,0.7,3.5,0.4,5.1-1c3.1-2.7,9.6-2.2,14.4,1.2c5.9,4.2,6.1,7.2,1.2,17.4l-4.4,9
			l4.2,6.3c5.3,8.1,5.6,15.4,0.9,24.3c-2.4,4.6-3.7,7.9-3.3,15.6c0.1,2.4-0.1,5.4-0.1,9c0,10.3,0.5,18.3,1.2,18.3c0.7,0,2.5,2,4,4.5
			c2.3,3.7,2.8,6.7,2.8,16.4c0,12.2-1.9,17.8-6,17.8c-2.5,0-3.1,4.3-4.2,34c-1.2,32.1-1.2,31.8,2.4,36.9c5.7,7.9,4.7,24.3-1.8,33.2
			c-2.3,3.1-2.7,7.4-4,42l-1.4,38.5l3.9,5.9c5.1,7.7,5.2,16.6,0.3,26.8c-1.9,4-3.8,8.4-4.2,9.9c-0.4,1.5-1.1,19.2-1.6,39.3
			l-0.9,36.7l3.6,7.7c4.7,10.2,4.7,19.3,0.2,26.2c-3.8,5.7-3.9,6.7-6.3,59.4c-1.4,29.7-1.3,34.1,0.6,40.6c2.8,9.3,2.7,12.6-0.4,22.9
			c-2.1,7-2.7,13.8-3.2,38.3C-783,752-783.5,758.6-785,759.5z"/>
	</g>
</g>
<g id="Dumbeldore-2">
	<g id="Dumbledore2" transform="matrix(3.61201,0,0,3.61201,5,-229.347)">
		<path d="M-932.8,305.2c0.7-0.7,1.4-58.1,0.8-65.6c-0.4-5.6-1.6-10.1-3.6-13.3c-2.3-3.7-3.1-7.1-3.3-14.2
			c-0.3-12.4,1.5-17.9,6.5-19.6c3.8-1.3,3.9-1.6,3.9-10.2c0-4.9,0-13.1,0.1-18.3c0.1-5.2-0.7-12.7-1.9-16.7
			c-4.2-14.9-2.9-23.9,3.9-27.7c1.9-1,1.8-1.8-0.7-7c-1.5-3.2-4-7.9-5.5-10.5c-2-3.5-2.3-4.9-1-5.6c0.9-0.6,1.1-1.1,0.5-1.1
			c-2.3,0,2.2-4,4.6-4c1.5,0,5.3-1.6,9.3-1.9c5.9-0.4,12.4,0.7,14,1.9c3.1,2.5,2.3,8.7-2.1,16.4c-2.2,3.9-4,7.8-4,8.7
			c0,0.9,1.6,3.7,3.5,6.3c3.2,4.2,3.5,5.3,2.7,13.2c-0.4,4.7-2.1,11.1-3.7,14.2c-2.5,4.9-2.9,8.1-3.1,23.4l-0.2,17.7l8.7,7.9
			l-0.5,11.2c-0.5,10.3-2.6,16.8-6.3,19.6c-1.3,0.9-3.6,10.1-4.5,18c-0.4,3.1-1.4,41.3-1.9,56.7c1.9,1.5,3,3.6,4.4,8.1
			c3.3,10.7,2.1,19.9-3.8,28.5c-2.6,3.9-2.7,5.9-2.7,49.7c0,32,0.4,46,1.5,46.6c0.8,0.5,2.3,3.2,3.3,6c1.7,4.6,1.5,5.8-1.3,13.3
			c-5.6,14.6-4,66.9-2.9,88.2c0.5,9.7,1.6,12.2,3.2,15.5c2.5,5.4,1.4,16.1-1.2,20.6c-2.3,3.9-3.6,5.4-4,21.1
			c-0.3,12.7,0.5,28.2,0.5,28.2c0.1,14,0.2,28.4,0.3,39.1c0,3.3-0.2,6.9,1.8,12c1.4,3.5,0.1,9.6-0.8,12.1c-1.6,4.3-2.3,9.3-2.2,16.8
			c0.2,7.4-1.6,20.8-1.8,30c-0.4,19.6-1.7,24-7.4,24c-2.6,0-4.1-0.8-4.5-2.3l0,0c-0.3-1.3-0.3-11.9,0.1-23.7
			c1.1-34.6,0.9-40.9-1.6-45.3c-2.7-4.9-2.8-8.1-0.3-15c1.4-3.9,1.9-12.8,2-32.5c0.1-14.9,0.5-34.4,0.9-43.2
			c0.7-15.6,1.6-15.9-1.2-20c-4.9-7.3-4.2-15.7-1.7-21.2c2.7-6.2,1.8-5.7,1.5-36.6c-0.2-16.6,0.9-43.9,0.8-48.5
			c-0.3-10.9-1.5-19.5-3-20.4c-1.5-0.9-1.5-10.9,0-11.8c0.7-0.4,1.3-12.3,1.4-26.4c0.2-23.5,1.9-60.2,3.4-74c0-0.1,0-0.1,0-0.2
			c-0.4-0.1-0.8-0.3-1.2-0.4c-2.5-1.3-4.4-6.7-5.1-9.9c-1-4.4-1.2-11.6-0.8-16.5C-938.2,308.8-933.6,305.3-932.8,305.2z"/>
	</g>
</g>
<g id="Potter">
	<g id="Harry-Potter" transform="matrix(3.61201,0,0,3.61201,5,-229.347)">
		<path d="M-1074.5,712.4c0.6-22.2,1.2-45.4,1.4-51.7c0.7-24.9,1.6-177,1.2-192.1c-0.3-11.5-0.2-25.1-0.4-48.3
			c0-3.7-0.4-24.1-0.5-28c-0.2-22.4-0.3-36.7-0.3-63c-0.1-52.7-0.3-57.6-2.5-60.8c-1.6-2.3-2.5-4.8-3.2-9.6
			c-0.6-4.6-0.1-11.2-0.1-17.5c0-6.3,2.3-11.9,3.5-16.9c1.6-6.7,1.6-98.7-0.8-99.5c-0.9-0.3-2-2.8-2.5-5.4
			c-0.5-2.7-2.7-8.3-4.9-12.5c-2.2-4.2-3.6-8.6-3.1-9.7c1.1-2.9,11.4-7.3,19.5-8.2c4.5-0.5,9-0.1,13.9,1.5c6.1,1.9,8,3.3,11.3,8.4
			c2.2,3.4,4.1,7.3,4.1,8.7c0,1.4-2.4,6.1-5.3,10.4l-5.3,7.8l0.7,20.4c0.4,11.2,1,35.9,1.3,54.8c0.5,30.4,0.9,35.1,3.1,40.3
			c4.7,10.5,4.2,21.3-1.1,26.7l-3.9,3.9l-0.9,53.3c-0.5,29.3-1.5,59.3-2.3,66.6c-0.9,8-1,18.6-0.4,26.7c0.6,7.4,1.1,14.9,1.2,16.7
			c0.1,1.8-0.3,4.7-0.9,6.4c-0.6,1.7-1.1,7.1-1,12c0.2,35.1-0.1,63.2-0.7,64.2c-0.5,0.8-0.9,110.1-0.5,122.7c0,1.1-0.3,3.8-0.8,6
			c-0.5,2.2-1.7,25.5-2.7,51.7c-1.3,33.1-1.8,46-4.2,51.1c-0.7,1.6-3.8,3.1-6.8,3.2c-3.5,0.1-7.1-1.4-7.3-2.5
			C-1076.2,743.5-1074.5,712.4-1074.5,712.4z"/>
	</g>
</g>
<g id="Hermione_1_">
	<g id="Hermione" transform="matrix(3.61201,0,0,3.61201,5,-229.347)">
		<path d="M-1210.2,763c-1.4-2.2-2.1-10-2.6-29.7c-1-34.8-3.3-102.7-4.1-121.3c-0.4-8.1-0.7-37.5-0.8-65.3
			c-0.1-27.9-0.6-51.9-1.2-53.3c-0.6-1.5-0.5-3.7,0.2-5c0.7-1.3,1.2-12.1,1.1-24c-0.1-24.1-0.3-28-1.5-29c-0.5-0.4,0-5.2,1.1-10.7
			c1.3-6.4,1.6-13.1,1.1-18.7c-1.6-16.5-2.1-61.1-0.6-67.4c1.6-6.9,2-31.8,0.6-34c-1.2-1.9-1.5-22.5-0.4-22.5c0.5,0,0.8-1.4,0.8-3
			c0-1.7,0-9,0-16.3c0.1-15.2-0.2-20-1.6-24.4c-0.7-2.1-0.3-3.9,1.2-5.5c1.8-2,1.9-3,0.6-6.2c-1.7-4.2-2.5-35.2-0.8-35.2
			c0.5,0,0.8-6.6,0.5-14.6c-0.3-8-0.1-18.3,0.4-22.7c0.7-6.2,0.5-8.8-1-10.9c-1.4-2-1.6-3.5-0.7-5c0.7-1.2,1.2-7.7,1.1-14.5
			c-0.1-6.8,0.3-12.3,0.9-12.3c0.6,0,1.1-0.6,1.1-1.3c0-0.7-0.7-1.2-1.7-1c-1.2,0.2-1.7-2.1-1.8-7.9c-0.1-7.7,0.1-8.4,3.3-9.7
			c1.9-0.8,7-1.7,11.4-2.1c6.3-0.5,8.9-0.1,12.1,1.9l4.1,2.5l-0.2,12.1c-0.1,6.9-0.8,12.7-1.7,13.6c-1.1,1.1-1.1,2.9-0.2,6.4
			c0.9,3.4,0.9,6.1-0.2,9.1c-1.1,3.1-1.1,7.2,0,16c1.8,14.3,1.7,32.9-0.3,38.9c-1.1,3.5-0.9,5.7,0.9,10.5c1.8,4.7,2.1,7.6,1.2,12.9
			c-1.1,6.5-1.3,34-0.5,52.8c0.2,4.8,0.3,12.6,0.2,17.3c-0.1,4.8-0.1,13.2,0,18.7c0.2,13.9-1.2,45-2.1,46.5c-0.4,0.7-0.1,3,0.7,5.1
			c1.1,2.8,1,5.1-0.3,8.9c-1.4,4.3-1.3,6.9,0.5,16c2.3,11,2,15.2-1.3,20.3c-1.4,2.1-1.7,9.1-1.6,30c0.1,15,0.7,28.2,1.3,29.4
			c1.1,2.1,0,20-2.8,47.8c-0.9,9.1-1,15-0.1,16.8c0.8,1.8,0.9,13.1,0.1,30.7c-3.5,84.7-5.3,147.1-5.3,184.8c0,20.5-0.2,22.5-2.7,25
			C-1205.2,766.8-1207.9,766.7-1210.2,763L-1210.2,763z"/>
	</g>
</g>
<g id="Ron_1_">
	<g id="Ron" transform="matrix(3.61201,0,0,3.61201,5,-229.347)">
		<path d="M-1352.8,753.7c-2.1-1.5-2.3-4.6-2-33c0.6-53.7,0-203.2-1.1-267.3c-0.5-33.7-0.8-64-0.6-67.3c0.5-7.4,0.5-9.9-0.5-94
			c-0.8-71.3-1.6-91-3.4-93.3c-0.6-0.7-1-6.8-0.8-13.4c0.2-6.6-0.2-12.7-0.8-13.5c-2.1-2.7,0.2-19.9,0.2-21.3c0-1.6,1.3-6.3,1.3-8.5
			c0-2.2-0.5-5.1-1.2-6.3c-5-9.6-6.1-26.4-3.9-33.3c1.3-4.1,4.1-6.3,7-8.7c5-4.3,12-6.3,16.8-4.9c2.1,0.6,4.1,0.8,4.4,0.5
			c1.4-1.4,13,12.1,14.4,16.7c1.5,5.2,0.2,14.3-4.3,29c-1.4,4.5-1.4,7.6,0,16.3c1,5.9,1.4,13.9,0.9,17.7c-0.5,3.9-1.1,10.9-1.5,15.7
			c-0.4,4.8-1.3,14.4-2,21.4c-3.8,36.6-4.3,55.1-6,214.6c-0.3,33.4-0.7,64.6-0.8,69.3c-0.1,4.8-0.1,12.3,0,16.7
			c0.5,28.7-2,121.7-3.8,143.3c-0.8,9.2-1.5,32.2-1.6,51.1c-0.2,30.6-0.8,40.3-3.2,51.2C-1345.8,755.7-1349.3,756.3-1352.8,753.7
			L-1352.8,753.7z"/>
	</g>
</g>
<g id="Luna_1_">
	<g id="Luna" transform="matrix(3.61201,0,0,3.61201,5,-229.347)">
		<path d="M-1482.4,748.7c-1.9,1.9-7.6,3.1-10.6,1.1c-2.4-1.7-2.4-6.4-2.4-7.3c-1.2-19.5-2.2-125.6-1.9-220
			c0.3-78.6-0.5-100.6-2.4-156.1c-0.2-6.2-2.7-10-3.2-12.6c-0.6-3.3,0.4-13.3,3.3-15.1c0.7-0.5,3.3-38.1,3.2-54
			c0-8.5-0.8-24.7-0.8-24.7l-1.8-3.3c-2-3.5-2.1-8.1-1.5-11c0.5-2.3,1.5-4.5-0.4-8.4c-1.6-3.4-3.5-7.7-3.7-10.4
			c-2.6-29,1.4-45,3.7-57.5c1.4-7.5,2.8-17.5,4.7-33.3c0.4-3.7,1.7-37.8,1.3-41.6c-0.5-4.5,2-5.5,5.5-2.4c2.6,2.4,8.8-3.3,10.3-3.3
			c0.5,0,2.8-1.1,3.7,2.6c0.2,0.9,0.6,4.4,1.8,5.6c1.1,1.2,4.2-1.8,4.7-0.1c0.6,1.8-1.2,10.8-1.2,10.8c-1.7,10.4-0.4,42.1,3.3,78
			c1.9,18,1.9,21.3,0.1,30.7c-2,10.4-3.2,14-6.9,20.5c-1.2,2-1.9,7-2,12.7c0,5.6-0.8,10.8-2,13.1c-1.6,3.1-1.8,9.3-1.1,38
			c0.7,29.7-1.9,33.7,1.3,37.2c2.9,3.2,3.2,7.1,3,12.7c-0.3,7-2.6,3.8-2.8,20.5c-0.1,15.4,0,47.8-0.6,135.2
			c-1,148.9-1.3,183.4-1.7,218.3C-1479.7,744.1-1480,746.3-1482.4,748.7z"/>
	</g>
</g>
<g id="Voldi">
	<g id="Voldemort" transform="matrix(3.61201,0,0,3.61201,5,-229.347)">
		<path d="M-1644.3,209.2c-0.4-6.2-0.8-14.1-1.2-19.1c-0.4-4.7-0.6-9.5-1.7-14.1c-1.3-5.6-3.2-13.8-6.2-19.3
			c-2.9-5.2-9-10-11.9-13.3c-1.9-2.2-4.9-3.8-5.6-6.7c-1-4.7-1.4-16.4-0.7-21.3c0.4-3.1,2.1-6.6,4.8-8c3-1.5,9.9-0.3,13.4-1.1
			c2.7-0.6,5.8-2.1,7.4-3.7c1.5-1.5,1-4.4,2.4-6c2.1-2.2,6.4-6.6,9.9-7.5c3.5-0.9,7.8,0.4,11,2.1c3.2,1.7,6.2,6.9,8.1,8.3
			c1,0.7,2.4,0.4,3.6,0.3c3.4-0.3,12.3-2.4,16.7-2.1c3.5,0.2,7.3,1.4,9.9,3.8c2.9,2.7,4,16.8,1.9,15.7c-2-1.1-4.3-2.4-6.5-2
			c-2.7,0.6-7.2,2.8-9.9,5.3c-3.5,3.3-8.8,9.2-11.4,14.7c-2,4.1-3.1,8.8-3.8,13.4c0.9,2.5,1.6,4.5,2,5.5c3.2,7.9-4.8,80.6-4.6,81
			c0.6,0.9,3.1,22.5,4.5,27.2c2.1,7.1,9.4,20.3,9.4,20.5c0,1.7-5,4.5-8.1,4.5c-2.8,0-3.9,0.7-3.9,2.3c0,1.3-1.1,5.5-2.5,9.4
			c-0.4,1.1-1.6,54.4-3.1,124.5c0,0.4-0.7,2.7-0.7,3.2c-2.7,123.4-5.7,295.8-7.5,328c-0.1,1.9-0.8,3.1-1.6,3.8
			c-2.2,1.8-5.9,0.7-6.1-0.8c-1.3-7.4-1.7-217.1-2-327.3c0-1.2-0.2-7-0.3-8.2c-1.9-34.5-3-131-3.9-131c-2,0-6,1.6-8.8,3.5
			c-6.7,4.5-9.9,3.5-5.5-3.4c7.2-11.3,9.4-39.8,9.4-40.6C-1647.2,249.6-1645.9,228.3-1644.3,209.2z"/>
	</g>
</g>
<g id="Krum_1_">
	<g id="Krum" transform="matrix(3.61201,0,0,3.61201,5,-229.347)">
		<path d="M-1787.1,746c-2.7,0-5.7-0.1-6.6-4.3c-0.8-3.6,0-21.5,0-22.8c0-2.2,11.6-270.4,12.4-274.4c0.6-3.1,7.8-88.5,10.8-126.7
			c0.1-1-0.9-2.5-0.8-3.5c0.2-2.8-0.1-7.7,1.5-9c1-0.8,1.2-4.1,1.4-7.7c0.5-8.7,4.4-49.6,8.3-64.4c3-11.4,4.5-27.5,0.2-41.7
			c-1.8-6-4.8-9.1-9.8-15.8c-6.9-9.2-24-23.5-25.7-26.5c-10-17.2-5-40.1-3.4-45.4c2.2-7.3,10.5-8.6,20.8-8.9c4.2-0.1,9.7,0.6,10.7,0
			c1-0.6,3.2-0.7,5-0.3c3.4,0.9,3.3,3.4-0.2,7.6c-1,1.2-3.7,7.2-5.9,13.3c-3.6,9.8-3.9,11.8-2.6,16.1c1.7,5.5,11.5,14.8,18.3,17.3
			c3.5,1.3,5.3,3.6,9.7,12.4c3,5.9,6.3,14.1,7.4,18.1c3.5,13.3,2,48.7-4.1,96.6c-1.2,9.5-2.9,16.3-3.1,22c0,0.9-1.1,6.9-0.7,7.7
			c0.7,1.3,0,9.3-0.6,10c-0.2,0.3-1.2,1.3-1.5,2.2c-0.5,1.6-0.3,3.6-0.5,5.9c-0.5,3.7-1.5,11.2-2.2,16.7c-2.3,16.8-6.5,54.5-8,71.3
			c-0.8,8.8-2,21.1-2.7,27.3c-1.4,12.2-2,19-7.9,98c-6.7,88.4-6.3,81.9-10.6,176.7C-1779,742.9-1779.9,746-1787.1,746z"/>
	</g>
</g>
<g id="Fleur_1_">
	<g id="Fleur" transform="matrix(3.61201,0,0,3.61201,13,-229.347)">
		<path d="M-1910.2,751.3c-0.7-1.4-1.3-7.6-1.3-13.8c0-6.2-0.8-14.5-1.8-18.4c-1.8-7.1-1.8-13.1-0.1-45.3c0.5-10.3,0.2-25.9-0.9-40
			c-1.2-15-1.6-38-1.3-65.2c0.3-29,0-43-1-44.8c-1.6-2.9-2.6-40.3-1.2-42.6c1-1.6,1-46.9,0-67.8c-0.4-8.1-0.1-24,0.7-35.3
			c1-14.5,1-25.8,0-38c-0.8-9.5-1.4-19-1.4-21c0-2-0.8-5.8-1.9-8.3c-2.3-5.4-2.5-17.2-0.4-23.2c1.3-3.8,1.1-4.6-2-7.7
			c-4.2-4.2-4.5-9.8-1-16.8c1.8-3.6,2.1-5.3,1-6.4c-1.1-1.1-1-1.9,0.5-3.1c4.8-3.7,5.7-6.5,6.1-18.4c0.2-6.7-0.1-15.2-0.8-19
			c-1.1-5.7-6.6-16.1-12.1-22.8c-5.2-6.3-12-19.2-14.8-28.1c-6.8-21.4-2.1-50.3,10.2-61.6c8.4-7.8,24.6-10.5,35.3-7.1
			c2.8,0.9,5.2,1.9,7.1,3.3c2.6,1.9,7.6,5.9,12.2,15.3c3.6,7.4,4.3,10.1,4.1,17.4c-0.2,9.2-3.1,18.9-6.7,22.9c-2,2.2-2,2.6,0.7,5.5
			c3.1,3.3,3.8,10,1.5,14.4c-0.8,1.6-0.9,3.3-0.3,4.2c0.6,0.9,1.3,3.5,1.5,5.8c0.3,3.3-0.7,5.4-4.6,9.7l-4.9,5.5l0.2,15
			c0.2,14.8,0.4,17,1.9,21c0.4,1.1,1.8,6,3,10.9c2.7,10.5,1.9,16.7-2.8,22.3c-4,4.7-4,5.7-0.6,8.2c1.5,1.1,2.7,3.3,2.7,5
			c0,1.7,0.6,2.8,1.2,2.4c3.9-2.4,4,18,0.2,26.5c-1.5,3.3-2.7,7.7-2.7,9.7c0,2.1-0.9,8.6-1.9,14.6c-1,6-2.3,18.3-2.7,27.3
			c-0.4,9.1-1.1,21.3-1.4,27.2c-0.3,5.9-0.9,24.2-1.3,40.7c-0.4,16.5-1,38.4-1.3,48.7c-0.4,10.3-1,36.1-1.5,57.3
			c-0.4,21.3-1.3,50.1-1.8,64c-0.5,13.9-1.2,41.5-1.4,61.3c-0.2,19.8-0.6,38.4-0.8,41.3c-0.2,2.9-0.8,13.4-1.3,23.3
			c-0.5,9.9-1.5,19.6-2.2,21.5C-1904.1,753.4-1908.4,754.7-1910.2,751.3L-1910.2,751.3z M-1914.8,185c0.4-2,1.3-4.7,2-5.9
			c0.8-1.5,0.6-2.7-0.7-3.8c-3.3-2.8-2.4-10,2-15l4-4.5l-3.8-3.6c-7.4-7-8.6-19.1-2.8-26.6c3.2-4.1,10.8-6.8,16-5.8
			c8.2,1.6,4.5-7-4.8-11.2c-14.7-6.7-29.3,1.2-33.8,18.2c-1.6,6-1.1,21.5,1,31.9c1.4,6.7,5.3,15.2,7.2,15.2c0.5,0,3.1,3.3,5.7,7.3
			c2.6,4,5.3,7.3,6,7.3C-1916.2,188.7-1915.2,187.1-1914.8,185z"/>
	</g>
</g>
<g id="Bellatrix_1_">
	<g id="Bellatrix" transform="matrix(3.61201,0,0,3.61201,8,-229.347)">
		<path d="M-2057.5,726.4c-0.5-2-0.9-13.9-0.8-26.3c0.1-12.5,0.4-66.5,0.7-120s0.1-110.5-0.4-126.7c-0.6-17.9-0.5-31.6,0.3-35.2
			c0.7-3.2,1.6-11,2-17.3c0.4-6.3,1.9-22,3.3-34.9c1.4-12.9,2.6-27.2,2.6-31.7c0-8.1-5.5-43.6-8-51.5c-0.7-2.2-1.9-11.5-2.7-20.7
			c-1.8-20.2-3.4-29.2-6.7-36.5c-1.4-3-2.5-7.2-2.5-9.2c0-4.2-4.7-18.4-8-24.3c-2.2-3.9-7.3-18.3-16-45.1c-2.4-7.2-4-14.6-3.6-16.5
			c0.4-1.8,0-5-0.8-7c-1.2-3.2-0.9-4.4,2.3-8.6c2-2.7,5.1-5.2,6.8-5.7c1.7-0.4,4.1-1.9,5.4-3.3c1.3-1.4,3.3-2.5,4.4-2.5
			s6.9-1.5,12.7-3.3s10.8-3.1,11.1-2.8c0.3,0.3,1.1,4.4,1.6,9c0.6,4.6,1.7,9.9,2.4,11.8c0.8,1.8,2.1,7.2,3,12c0.9,4.8,3.6,14.7,6,22
			c5.3,16.4,8.8,38.5,9.5,61.3c0.3,9.5,1.2,20.6,1.9,24.7c3.1,16.3,4.4,22.1,5.3,23.3c4.9,6.7,9.3,52,9.3,52
			c1.1,5.5-0.4,33.4-2.7,48.7c-0.7,4.8-0.9,10-0.5,11.7c0.5,1.9-0.6,5.5-2.7,9.7c-2.1,4-3.8,9.9-4.3,15c-0.4,4.6-1,8.8-1.3,9.2
			c-0.5,0.8-1.1,15.2-2.5,57.1c-0.3,10.6-1.2,22.9-2,27.3c-0.7,4.4-1.4,10.8-1.4,14.3c0,4.7,1.5,8.5,0,12.4
			c-1.7,4.5-3.8,25.2-4.7,47.3c-0.5,10.6-1.4,26.5-2.1,35.3c-0.7,8.8-1.5,18.7-1.8,22c-0.3,3.3-1.2,15.3-2,26.7
			c-0.8,11.4-2.1,25.5-2.8,31.3c-0.7,5.9-1.9,18-2.6,27.1c-1.3,15.8-2.7,21.6-5.4,21.6C-2056,730-2057,728.4-2057.5,726.4
			L-2057.5,726.4z"/>
	</g>
</g>
</svg>
