<svg xmlns="http://www.w3.org/2000/svg" viewBox="0 0 489.6 2628"><path d="M227.33 2514c-4.55 2.88-22.82 7-29.93-.62-6.52-7-10.13-221.48-14-227.42-14.76-22.77-13.17-96.85 2.4-112.42 1.95-1.94 3.53-7.5 3.53-12.36 0-9.38 4.33-245.09 5.22-275.25.86-29.47-.63-38.89-7.32-46.28-10.45-11.55-16.9-38.46-17-71.16-.09-20.4 2.12-27.3 11.93-37.1 6.62-6.63 12-14.08 12-16.56s3.25-5.77 7.22-7.29 2-27.5 2-35.31c.06-10.5 8.18-187.51 8-233.32 0-7.73-4.1-35.76-9.2-41.57-20.92-23.84-34-61.37-17.67-101.33 8.52-20.87 29.57-40.1 29-83.63-.26-19.4 5.61-86.57 2.11-149.08-5.87-105.13-20.29-78.84-28.69-100.94-9.9-26.06-7.2-38.22-7.2-42.23 0-5.28.65-47.73 17.89-63.55 15.33-14.06 15-12.53 18.71-86.42 2.12-42.09-2.4-77.13-3.92-104.78-3.78-69-14.42-62.74-18.63-66.55-9.56-8.65-14.05-101.77-14.05-105.92 0-5.43 33.72-27.76 33.78-44.22.06-19.22.88-47.21-1.34-105.11-.56-14.72-23.09-34-25.23-79.14-1.44-30.52 31.28-61.52 28.92-68.94-1.86-5.82-5.86-19.37-8.86-30.16s-9.36-23.4-14-28c-11-11-10.63-20 1.22-31.81 10.29-10.3 16.06-11.23 31.3-5 6.5 2.63 12.47 1.41 18.34-3.76 11.26-9.88 34.69-8 51.84 4.24 21.25 15.13 22 26.11 4.3 62.7l-15.74 32.54 15.18 22.91c19.3 29.14 20.24 55.54 3.14 87.67-8.77 16.46-13.5 28.62-11.83 56.21.54 8.79-.21 19.47-.21 32.66 0 37 1.95 66.26 4.42 66.26s8.94 7.3 14.45 16.22c8.19 13.26 10 24.07 10 59.13 0 44.08-6.83 64.32-21.72 64.32-9.13 0-11.06 15.67-15.12 122.8-4.4 115.94-4.46 115 8.57 133.32 20.43 28.69 17.16 87.86-6.64 120.1-8.37 11.34-9.83 26.61-14.49 151.79l-5.19 139.18 14.04 21.18c18.48 28 18.83 59.88 1.05 97-6.89 14.36-13.65 30.44-15 35.73s-3.92 69.23-5.65 142.08l-3.14 132.44 12.85 27.92c16.93 36.8 17.12 69.7.56 94.73-13.55 20.47-13.94 24.19-22.68 214.53-4.93 107.23-4.68 123.34 2.21 146.56 10 33.62 9.77 45.62-1.56 82.83-7.64 25.14-9.68 49.85-11.39 138.29-1.67 84.65-3.54 108.52-8.78 111.89z"/></svg>