<svg xmlns="http://www.w3.org/2000/svg" viewBox="0 0 489.6 2628"><path d="M184.18 2514.63c-8.5-5.41-9.78-172.56-3-388.82 15-478.66 19.69-783 16.91-1107.68-1.21-143-2.51-404.66-2.89-581.4-.66-320.6-.64-321.35 9.47-331.46 13-13 44.15-17.12 71.54-9.46 37.27 10.44 36.83 8.21 36.45 183.87-.18 85-1.27 156.07-2.42 157.93s-2.32 61.73-2.58 133-2.45 181.65-4.85 245.22c-6 159.67-9.11 259.43-12.29 397.32-1.49 64.9-5.94 178.68-9.88 252.84-13.47 253.66-15.76 298.72-20.75 407-7.51 162.86-10.22 206.38-15 241.52-2.41 17.6-4.35 67.91-4.29 111.79.09 76.45-7.38 234-12.63 266.7-3.38 20.89-26.77 32.46-43.79 21.63z"/></svg>