<svg xmlns="http://www.w3.org/2000/svg" viewBox="0 0 489.6 2628"><path d="M178.9 2477c-3-7.79 1.75-208.17 5.85-247.59 4.88-46.8 17.82-813.25 18.43-1090.83.66-308.15 2.52-319.21-13.29-339.18-2.91-3.68-13.81-9.37-19-18.78-6.43-11.56 2-44.25 9-50.26 16.35-14.07 21.92-39.8 12.65-58.44-2.75-5.53-10.42-59-12.25-124.16-1.65-59.3 2.3-130 4.13-151 2.18-24.93 11.06-67.31 9.68-101.93-1.13-28.26-26.48-55.47-26.25-63.35.38-12.42 12.91-25.35 15.54-39 2.66-13.83-13-13.72 1.54-37.38 8.29-13.48 10.57-18.08 22.07-31.47 24.85-28.92 25.18-31.24 61.73 2 11 10 18.21 19.92 25.2 27.63 14.91 16.45 1.31 28.78 1.93 35.69 1.74 19.6 18.28 27.37 18.75 42.09.66 21.07-21.76 19.68-19.85 77.44.64 19.56 3.82 46.29 4.91 59.53s3.2 36 4.71 50.57c5.16 49.78 5 121.62.31 185.49-1.82 24.85-4.32 48.5-7.45 69.17-3.94 26.07-3.46 32 3.24 39.43 4.34 4.79 6.55 19 11.81 20.36 8.06 2.11 9.58 6.61 9.58 28.29 0 19.83-2.05 27.05-8.88 31.32-9.19 5.74-26.22 55.69-27.64 81-.44 8-2.16 40.46-3.83 72.24s-4.08 76.22-5.37 98.73c-3.52 61.36-7 176.78-12.26 409.36-4.66 205.19-11.84 429.13-16.66 520.13-14 264.34-17.67 330.19-21.86 392.5-6.37 94.86-8.51 107.52-19.2 113.24-13 7-23.86 5.81-27.2-2.9z" data-name="Narcissa"/></svg>