<svg xmlns="http://www.w3.org/2000/svg" viewBox="0 0 489.6 2628"><path d="M200.69 2343.74c2.05-80.13 4.27-164.11 4.93-186.62 2.62-89.9 5.62-639.39 4.28-693.91-1-41.49-.62-90.59-1.32-174.46-.11-13.27-1.53-87-1.63-101-.59-81-1-132.61-1.11-227.42-.26-190.35-1-208.11-8.86-219.71-5.73-8.43-9.14-17.48-11.38-34.64-2.17-16.58-.23-40.56-.4-63.21-.16-22.9 8.31-43.13 12.58-60.91 5.78-24.1 5.83-356.59-2.91-359.52-3.22-1.08-7.34-9.94-9.15-19.68s-9.73-30.06-17.61-45.15-13-30.89-11.38-35.17c4.06-10.57 41.36-26.34 70.47-29.78 16.35-1.94 32.49-.2 50.37 5.42 22 6.92 28.72 11.91 41 30.39 8.06 12.17 14.65 26.36 14.65 31.54S324.56 182 314 197.42l-19.16 28.06 2.65 73.65c1.46 40.52 3.55 129.63 4.65 198 1.77 109.71 3.1 126.87 11.3 145.41 16.81 38 15.25 77.07-3.86 96.62l-13.94 14.26-3.1 192.58c-1.72 105.89-5.47 214.1-8.35 240.46a576.65 576.65 0 0 0-1.55 96.32c2 26.62 4.05 53.81 4.51 60.43a70.23 70.23 0 0 1-3.08 23.25c-2.15 6.16-3.82 25.67-3.72 43.35.75 126.67-.29 228.33-2.38 231.72-1.84 3-3.37 397.85-1.72 443.35.14 4-1.1 13.72-2.77 21.67s-6.06 92-9.77 186.81c-4.67 119.6-6.33 166.26-15.09 184.45-2.69 5.6-13.55 11.28-24.71 11.69-12.72.47-25.75-5-26.24-8.91-3.09-24.28 3.02-136.85 3.02-136.85z"/></svg>