<svg xmlns="http://www.w3.org/2000/svg" viewBox="0 0 489.6 2628"><path d="M220.15 2526.75c-5.05-8-7.54-36.07-9.51-107.16-3.49-125.53-11.84-370.9-14.93-438.26-1.33-29.13-2.68-135.32-3-236s-2.26-187.34-4.33-192.64-1.8-13.41.6-18 4.25-43.63 4.1-86.68c-.29-87.16-1.05-101.28-5.56-104.78-1.71-1.32.06-18.66 3.95-38.52 4.54-23.28 6-47.26 4-67.43-5.88-59.46-7.42-220.76-2.32-243.5 5.61-25 7.12-114.79 2.07-123-4.21-6.82-5.53-81.43-1.44-81.43 1.71 0 3-4.87 2.94-10.83s0-32.51.18-59c.38-54.9-.79-72.39-5.89-88.24-2.46-7.62-1.13-13.92 4.19-19.79 6.51-7.2 6.84-10.91 2-22.53-6.29-15.16-8.88-127.09-2.94-127.09 2 0 2.74-23.74 1.7-52.76s-.34-65.93 1.56-82c2.63-22.38 1.77-31.67-3.65-39.42-5-7.08-5.69-12.48-2.41-17.9 2.58-4.27 4.45-27.81 4.13-52.31s1.16-44.54 3.27-44.54 3.84-2.17 3.84-4.82-2.71-4.28-6-3.61c-4.26.85-6.14-7.51-6.44-28.64-.4-27.75.45-30.19 12-34.94 6.85-2.8 25.46-6.16 41.35-7.45 22.8-1.86 32.06-.44 43.86 6.75l14.95 9.11-.61 43.7c-.35 25.05-2.92 46-6 49.11-3.84 3.83-4 10.49-.56 23s3.22 22.07-.62 32.71c-4.07 11.24-4.1 26.15-.13 57.83 6.46 51.57 6 118.67-1 140.61-4.07 12.77-3.41 20.5 3.22 37.87 6.49 17 7.44 27.31 4.3 46.56-3.82 23.46-4.76 122.93-1.79 190.89.75 17.22 1.05 45.39.66 62.61s-.42 47.56-.06 67.42c.9 50.36-4.2 162.39-7.64 168-1.57 2.54-.51 10.75 2.35 18.26 3.88 10.15 3.64 18.43-.93 32.3-5.17 15.7-4.86 24.81 1.92 57.79 8.15 39.63 7.2 55-4.57 73.32-5 7.74-6.31 32.93-5.68 108.36.46 54 2.58 101.77 4.72 106.05 3.81 7.65 0 72.27-10.29 172.81-3.35 32.85-3.52 54.16-.5 60.83 2.94 6.49 3.13 47.2.51 110.77-12.58 305.79-19.06 531.25-19.15 667.59-.06 74.2-.83 81.44-9.69 90.3-12.57 12.57-22.25 12.19-30.69-1.2z" data-name="Hermione"/></svg>