<svg xmlns="http://www.w3.org/2000/svg" viewBox="0 0 489.6 2628"><path d="M202.89 872.9c2.68-2.56 5-209.84 3-237-1.5-20.36-5.91-36.51-13.15-48.16-8.25-13.27-11.12-25.71-11.81-51.24-1.21-44.91 5.24-64.51 23.34-70.81 13.8-4.82 14.16-5.77 13.92-36.9-.15-17.57 0-47.26.36-66s-2.68-45.8-6.7-60.2c-15-53.75-10.43-86.28 14.11-100 6.7-3.75 6.41-6.57-2.53-25.39-5.53-11.65-14.41-28.66-19.72-37.8-7.34-12.64-8.23-17.53-3.72-20.4 3.26-2.07 4-3.8 1.73-3.84-8.37-.15 8-14.52 16.56-14.52 5.43 0 19-5.85 33.72-6.83 21.2-1.41 44.87 2.37 50.43 7 11.08 9.19 8.29 31.48-7.41 59.3-7.95 14.08-14.45 28.28-14.45 31.55s5.73 13.47 12.72 22.64c11.65 15.28 12.48 19.28 9.83 47.64-1.59 17-7.57 40.15-13.3 51.37-9 17.66-10.5 29.08-11 84.36l-.62 63.94 31.39 28.67-1.9 40.5c-1.75 37.26-9.3 60.61-22.86 70.74-4.53 3.39-12.87 36.51-16.36 65-1.38 11.27-4.89 149.33-6.87 204.88 7 5.51 10.88 12.83 16 29.41 11.9 38.48 7.49 71.79-13.62 102.94-9.46 14-9.86 21.2-9.86 179.56 0 115.53 1.61 166 5.34 168.45 2.94 1.89 8.31 11.72 11.93 21.83 6 16.8 5.59 21-4.76 48.16-20.06 52.73-14.54 241.76-10.46 318.72 1.87 35.17 5.86 44 11.41 55.88 9.11 19.54 5.08 58.06-4.32 74.51-8.15 14.24-13.18 19.66-14.63 76.1-1.17 45.8 1.77 101.75 1.77 101.75.36 50.54.75 102.54 1.06 141.33.09 12.06-.81 24.9 6.37 43.29 4.91 12.56.21 34.75-3.05 43.54-5.76 15.53-8.42 33.73-7.78 60.8.63 26.65-5.92 75.25-6.57 108.36-1.39 70.68-6.29 86.69-26.56 86.69q-14 0-16.1-8.43c-1.15-4.64-1-43.1.35-85.49 3.94-124.85 3.14-147.71-5.75-163.74-9.83-17.71-10.09-29.21-1.24-54.31 5-14.11 7-46.16 7.37-117.39.29-53.9 1.75-124.13 3.26-156.07 2.65-56.47 5.71-57.34-4.25-72.24-17.71-26.5-15-56.64-6.31-76.63 9.73-22.39 6.62-20.51 5.32-132-.71-59.91 3.32-158.56 2.9-175.11-1-39.48-5.56-70.51-10.87-73.79-5.55-3.43-5.54-39.24 0-42.66 2.35-1.46 4.56-44.39 4.92-95.4.6-85.06 6.73-217.38 12.38-267.32 0-.23 0-.46.08-.69a20.92 20.92 0 0 1-4.16-1.61c-9-4.7-15.73-24.38-18.24-35.82-3.49-15.9-4.24-41.84-2.71-59.54 2.45-28.48 19.18-41.04 22.07-41.58z"/></svg>