<svg xmlns="http://www.w3.org/2000/svg" viewBox="0 0 489.6 2628"><path d="M256.15 2475c-6.83 6.84-27.46 11.31-38.24 3.94-8.81-6-8.65-23.19-8.85-26.31-4.36-70.38-8.1-453.83-7-794.81.91-283.93-2-363.27-8.7-563.88-.74-22.23-9.87-36.23-11.59-45.47-2.24-12 1.43-48 11.78-54.39 2.65-1.63 11.8-137.7 11.51-195.14-.16-30.82-2.74-89.15-2.74-89.15l-6.68-12c-7.06-12.62-7.52-29.41-5.43-39.56 1.75-8.46 5.36-16.24-1.29-30.4-5.71-12.14-12.54-27.8-13.42-37.72-9.26-104.6 5-162.69 13.33-207.69 5-27 10.1-63.27 17-120.4 1.6-13.24 6.18-136.44 4.7-150.36-1.75-16.38 7.35-19.87 19.77-8.63 9.53 8.63 31.61-12 37.18-12 1.77 0 10-3.93 13.28 9.48.81 3.4 2.32 16 6.46 20.17s15-6.39 17-.37c2.14 6.43-4.18 38.91-4.18 38.91-6.18 37.44-1.29 152.24 12 281.74 6.69 65.14 6.73 77.08.31 110.77-7.13 37.42-11.6 50.6-25 73.88-4.21 7.29-7 25.33-7 45.75-.06 20.09-3 39.19-7.18 47.27-5.92 11.36-6.59 33.69-4.11 137.26 2.57 107.15-6.9 121.6 4.76 134.4 10.5 11.53 11.67 25.62 10.89 45.74-1 25.14-9.44 13.86-10 74.19-.49 55.5.12 172.67-2.1 488.22-3.77 537.77-4.72 662.62-6 788.62-.75 71.26-1.69 79.15-10.46 87.94z" data-name="Luna"/></svg>