<svg xmlns="http://www.w3.org/2000/svg" viewBox="0 0 489.6 2628"><path d="M247.78 2484.49c-2.62-4.89-4.75-27.34-4.75-49.9s-2.93-52.5-6.5-66.54c-6.48-25.47-6.55-47.32-.52-163.45 1.93-37.12.65-93.51-3.27-144.48-4.16-54.13-5.8-137.21-4.66-235.65 1.21-104.57.1-155.14-3.54-161.94-5.7-10.65-9.38-145.54-4.2-153.92 3.66-5.93 3.77-169.57.16-244.86-1.4-29.14-.23-86.57 2.59-127.62 3.6-52.43 3.61-93.29.07-137.26-2.78-34.43-5-68.65-5-76s-3-20.86-6.8-30c-8.22-19.68-9-62.31-1.57-83.68 4.8-13.76 4.07-16.58-7.22-27.86-15.15-15.16-16.36-35.47-3.6-60.51 6.59-12.91 7.55-19 3.61-23s-3.43-7 1.88-11.13c17.16-13.53 20.42-23.37 22-66.43.89-24.17-.49-55.06-3.07-68.64-3.91-20.62-24-58.32-43.72-82.21-18.83-22.77-43.35-69.19-53.6-101.46-24.59-77.43-7.42-181.67 36.66-222.53 30.26-28 88.91-38 127.36-25.64 10 3.21 18.65 7 25.51 12 9.31 6.84 27.51 21.41 44.21 55.31 13.19 26.66 15.47 36.48 14.87 62.91-.76 33.09-11.07 68.37-24.21 82.89-7.35 8.12-7.17 9.48 2.53 19.81 11.36 12.09 13.79 36.12 5.28 52-3 5.62-3.41 12-1 15.33 2.31 3.14 4.78 12.59 5.48 21 1 11.86-2.7 19.67-16.51 35l-17.74 19.67.59 54.13c.59 53.33 1.32 61.5 6.69 75.8 1.5 4 6.43 21.68 11 39.34 9.72 37.84 6.93 60.28-10 80.41-14.35 17-14.62 20.61-2.22 29.55 5.3 3.82 9.63 12 9.63 18.2s2 10 4.47 8.5c14-8.64 14.45 65.15.6 95.55-5.43 11.93-9.88 27.77-9.89 35.21s-3.11 31.14-6.9 52.68-8.19 66-9.76 98.73-3.85 76.89-5.06 98.08-3.34 87.29-4.73 146.89-3.58 138.7-4.85 175.78-3.63 130.27-5.25 207.09-4.54 180.84-6.49 231.17-4.2 150-5 221.53-2.1 138.7-2.88 149.3-2.82 48.52-4.53 84.28-5.28 70.77-7.93 77.8c-6.06 16.08-21.66 20.93-28.17 8.77zM231.18 439c1.54-7.29 4.73-16.85 7.11-21.26 2.93-5.45 2.06-9.88-2.7-13.83-12.06-10-8.54-36.28 7.28-54.29l14.29-16.28-13.6-13c-26.55-25.43-31.09-69.14-10-96 11.54-14.68 38.93-24.55 57.68-20.8 29.54 5.91 16.21-25.13-17.36-40.42-53.06-24.18-106 4.33-122 65.73-5.71 21.83-3.9 77.52 3.75 115.35 4.93 24.37 19.31 55 25.84 55.06 1.91 0 11.09 11.95 20.41 26.52s19.1 26.48 21.73 26.48 6.04-5.97 7.57-13.26z" data-name="Fleur"/></svg>