<?xml version="1.0" encoding="UTF-8" standalone="no"?>
<!DOCTYPE svg PUBLIC "-//W3C//DTD SVG 1.1//EN" "http://www.w3.org/Graphics/SVG/1.1/DTD/svg11.dtd">
<svg width="3600px" height="2934px" version="1.1" xmlns="http://www.w3.org/2000/svg" xmlns:xlink="http://www.w3.org/1999/xlink" xml:space="preserve" xmlns:serif="http://www.serif.com/" style="fill-rule:evenodd;clip-rule:evenodd;stroke-linejoin:round;stroke-miterlimit:2;">
    <g transform="matrix(1.33333,0,0,1.33333,0,0)">
        <g id="Ginny" transform="matrix(3.61201,0,0,3.61201,42,-229.347)">
            <path d="M712.044,615.403C710.823,614.941 709.473,613.306 709.044,611.77C707.857,607.519 708.375,534.858 709.904,490.977C711.766,437.565 711.8,284.735 709.95,283.592C707.684,282.191 708.662,258.977 708.662,258.977L709.167,254.477C709.444,252.002 708.758,243.702 709.215,239.477C709.943,232.74 709.96,233.471 708.867,224.977C708.372,221.127 708.132,212.127 708.333,204.977C708.535,197.827 708.635,190.627 708.555,188.977C708.364,185.016 708.41,181.944 708.944,162.977C709.192,154.177 709.081,146.302 708.697,145.477C708.314,144.652 708.454,142.852 709.009,141.477C709.564,140.102 710.09,135.827 710.176,131.977C710.411,121.579 714.924,114.477 721.298,114.477C726.94,114.477 730.645,121.108 731.891,133.431C733.086,145.262 733.061,145.786 731.242,147.116C729.775,148.189 729.815,148.657 731.697,152.346C734.329,157.505 734.319,161.843 731.663,166.137C729.969,168.879 729.801,169.819 730.794,171.015C732.422,172.976 732.165,181.798 730.379,185.251C729.116,187.693 729.164,188.375 730.82,191.485C733.079,195.728 733.295,202.271 731.273,205.158C729.999,206.977 729.975,207.841 731.113,211.131C732.584,215.387 731.777,220.389 729.287,222.456C728.077,223.46 728.029,224.082 729.026,225.832C730.602,228.597 731.36,278.53 729.885,282.368C729.3,283.892 728.644,304.318 728.307,331.477C727.317,411.393 726.761,444.678 726.267,453.477C726.004,458.152 725.54,475.477 725.236,491.977C724.44,535.133 722.113,602.322 721.215,608.067C720.787,610.804 718.168,614.166 715.262,615.711C714.712,616.003 713.263,615.864 712.042,615.403L712.044,615.403Z" style="fill-rule:nonzero;"/>
        </g>
        <g id="Neville" transform="matrix(3.61201,0,0,3.61201,51,-229.347)">
            <path d="M671.269,520.638C671.827,476.181 673.71,263.035 674.012,245.977C674.441,221.777 674.722,200.177 674.637,197.977C674.487,194.126 674.465,186.246 674.585,179.977C674.77,170.424 673.854,161.274 672.233,156.463C669.765,149.14 669.671,135.331 672.057,130.573C672.996,128.701 673.778,126.451 673.796,125.573C673.815,124.695 674.376,123.302 675.046,122.477C676.681,120.464 681.604,117.983 682.394,118.774C682.742,119.122 684.881,118.344 687.146,117.046C694.255,112.97 695.458,112.927 697.738,116.666C700.887,121.831 700.499,131.064 696.725,140.766C695.058,145.05 694.027,149.093 694.433,149.75C695.211,151.009 697.028,171.175 696.975,177.977C696.879,190.438 695.92,210.415 695.376,211.296C694.529,212.666 691.646,259.139 691.239,277.977C691.061,286.227 690.66,300.177 690.346,308.977C689.964,319.738 689.571,332.882 689.195,347.223C688.687,396.042 687.707,461.588 686.455,507.475C686.494,521.363 685.896,546.016 684.753,574.477C683.528,604.969 682.516,604.59 681.256,607.977C678.902,614.303 671.374,612.85 670.119,609.85C667.871,604.479 668.94,594.694 669.023,585.359C669.032,584.426 671.098,534.196 671.269,520.638Z" style="fill-rule:nonzero;"/>
        </g>
        <g id="DeathEaters" serif:id="Death Eaters" transform="matrix(3.62356,0,0,3.62356,35.1066,-234.736)">
            <path d="M638.33,607.659C635.641,618.26 631.004,615.085 629.475,608.619C626.217,594.837 629.277,560.794 630.263,541.794C630.843,530.616 628.995,519.729 628.861,517.124C628.414,508.395 633.052,495.314 632.08,485C631.54,479.265 629.277,472.983 628.943,466.813C628.615,460.742 631.056,452.456 630.771,446.225C630.596,442.376 629.311,437.706 629.196,433.85C628.918,424.527 632.515,414.768 632.206,405.768C631.884,396.343 628.904,387.683 628.842,379.059C628.808,374.423 630.913,369.456 630.942,365.17C631.009,355.499 629.996,347.624 629.627,338.792C628.934,322.211 630.173,306.43 629.62,294.227C628.893,278.18 626.486,267.983 626.681,266.919C627.104,264.614 630.149,265.589 629.679,265.12C629.602,265.042 628.383,262.143 628.423,257.49C628.435,256.024 629.481,254.516 629.671,252.757C629.803,251.544 629.047,250.153 629.219,248.811C629.786,244.385 630.478,239.278 630.653,233.635C630.684,232.622 631.243,231.625 631.273,230.588C631.3,229.653 630.798,228.682 630.824,227.731C630.91,224.533 630.99,221.25 631.065,217.934C631.088,216.942 631.943,216.19 631.965,215.193C631.996,213.737 631.194,212.034 631.224,210.576C631.296,207.099 631.365,203.629 631.432,200.227C631.455,199.013 632.417,198.086 632.44,196.892C632.462,195.793 631.546,194.426 631.567,193.349C631.637,189.883 631.706,186.539 631.777,183.387C631.811,181.901 633.236,180.458 633.27,179.064C633.312,177.409 631.964,175.825 632.008,174.324C632.252,165.977 632.543,160.203 632.953,159.142C634.277,155.721 623.529,157.387 622.756,143.33C621.616,122.569 632.141,119.007 638.327,116.739C643.712,114.764 652.557,114.675 656.388,117.727C662.781,122.82 662.326,125.923 662.536,129.201C662.761,132.72 667.854,130.625 668.298,141.012C668.509,145.965 668.668,151.777 665.836,155.098C662.808,158.647 660.166,157.436 660.423,160.593C660.63,163.145 660.439,162.827 660.693,170.67C660.758,172.654 661.493,176.103 659.377,178.492C659.194,178.698 658.288,182.717 648.319,178.825C647.415,178.472 647.492,181.397 647.28,182.219C646.978,183.395 645.464,184.611 645.329,185.973C645.075,188.533 646.533,188.657 646.308,194.909C646.282,195.624 645.37,197.573 645.428,198.317C645.504,199.297 646.138,200.298 646.216,201.329C646.502,205.102 646.134,209.334 646.161,213.735C646.166,214.486 645.811,215.285 645.88,216.006C645.931,216.541 646.396,217.004 646.466,217.531C646.878,220.618 647.502,223.633 646.964,227.3C646.876,227.899 646.521,229.245 646.51,230.808C646.506,231.412 647.173,232.452 647.177,233.162C647.192,235.383 647.114,237.522 646.967,240.383C646.843,242.785 645.438,245.866 645.517,248.322C645.578,250.206 647.681,250.351 647.881,252.027C648.527,257.422 647.696,263.063 647.603,263.346C646.64,266.262 648.515,264.376 649.145,266.332C649.954,268.838 648.873,276.088 647.987,281.328C647.335,285.185 648.778,294.675 648.358,308.869C648.246,312.641 646.175,307.922 646.567,339.188C646.676,347.937 645.461,356.667 645.407,363.566C645.346,371.204 646.362,376.688 646.366,379.44C646.422,413.053 643.741,424.039 643.516,431.167C643.28,438.645 644.407,450.808 644.28,462.477C644.218,468.257 643.563,481.077 643.259,490.977C643.021,498.749 641.882,508.273 641.69,515.556C641.362,528.008 642.564,540.507 642.439,552.265C642.337,561.863 641.304,571.099 641.057,579.068C640.523,596.234 638.785,605.865 638.33,607.659Z" style="fill-rule:nonzero;"/>
        </g>
        <g id="McGonagall" transform="matrix(3.61201,0,0,3.61201,26,-229.347)">
            <path d="M601.233,614.426C600.875,613.848 600.845,605.185 601.165,595.176C602.788,544.403 603.746,315.919 602.354,311.679C601.911,310.331 602.058,308.827 602.71,308.041C603.426,307.179 604.158,295.531 604.764,275.339C605.282,258.09 605.934,240.445 606.211,236.129C606.676,228.909 606.518,228.021 604.24,225.034C601.266,221.135 601.106,218.904 603.686,217.294C605.581,216.11 605.581,216.06 603.686,213.65C602.629,212.306 601.778,210.48 601.796,209.592C601.835,207.608 604.113,204.477 605.517,204.477C606.085,204.477 606.823,203.765 607.157,202.895C608.32,199.865 607.748,197.144 605.264,193.888C603.889,192.085 602.764,190.325 602.764,189.977C602.764,189.628 601.598,187.815 600.174,185.947C595.141,179.349 596.175,171.168 602.621,166.578C606.454,163.849 608.246,157.31 606.23,153.41C603.779,148.672 603.277,142.672 605.157,140.595C606.637,138.959 606.651,138.628 605.289,137.498C603.2,135.764 603.341,130.816 605.514,129.582C606.952,128.765 607.054,128.244 606.082,126.655C604.112,123.434 603.4,117.62 604.773,115.966C606.297,114.129 616.797,113.909 618.564,115.677C620.217,117.33 620.058,122.39 618.242,125.871C616.837,128.565 616.872,128.864 618.748,130.178C621.114,131.836 621.329,134.324 619.34,137.036C618.105,138.72 618.112,139.194 619.394,140.615C621.499,142.948 621.074,150.532 618.704,152.927C616.151,155.507 617.971,160.576 623.87,167.312C629.908,174.207 629.998,182.137 624.111,188.477C620.453,192.415 616.764,197.92 616.764,199.44C616.764,200.368 617.851,202.149 619.179,203.397C622.464,206.483 623.169,209.958 621.279,213.747C619.886,216.54 619.882,216.963 621.241,217.724C623.444,218.957 623.118,221.323 620.221,225.121L617.678,228.455L617.157,269.787C616.87,292.52 616.274,314.687 615.833,319.048C615.391,323.409 614.951,339.087 614.855,353.889C614.759,368.691 614.525,381.066 614.335,381.389C614.145,381.712 613.689,399.977 613.321,421.977C612.143,492.584 608.804,594.877 607.176,610.227C606.678,614.926 606.371,615.477 604.25,615.477C602.947,615.477 601.589,615.004 601.232,614.426L601.233,614.426Z" style="fill-rule:nonzero;"/>
        </g>
        <g id="Narcissa" transform="matrix(3.61201,0,0,3.61201,19,-229.347)">
            <path d="M565.092,609.888C564.47,608.269 565.454,566.662 566.307,558.477C567.32,548.759 570.007,389.614 570.132,331.977C570.27,267.992 570.657,265.694 567.374,261.549C566.768,260.785 564.505,259.602 563.419,257.648C562.085,255.248 563.835,248.46 565.284,247.213C568.68,244.292 569.836,238.948 567.911,235.078C567.34,233.929 565.747,222.835 565.368,209.298C565.024,196.984 565.844,182.303 566.225,177.944C566.677,172.767 568.521,163.967 568.235,156.779C568.001,150.911 562.736,145.261 562.785,143.625C562.863,141.046 565.466,138.361 566.011,135.522C566.563,132.65 563.313,132.674 566.331,127.762C568.052,124.961 568.525,124.007 570.914,121.227C576.073,115.221 576.141,114.739 583.731,121.648C586.008,123.721 587.513,125.785 588.964,127.385C592.059,130.801 589.236,133.362 589.364,134.795C589.726,138.865 593.161,140.479 593.257,143.536C593.394,147.911 588.74,147.622 589.136,159.616C589.27,163.676 589.929,169.227 590.155,171.977C590.38,174.727 590.82,179.452 591.134,182.477C592.205,192.813 592.168,207.73 591.198,220.991C590.82,226.152 590.302,231.063 589.652,235.354C588.832,240.768 588.933,242.005 590.323,243.541C591.224,244.536 591.683,247.483 592.776,247.769C594.449,248.207 594.765,249.141 594.765,253.643C594.765,257.761 594.34,259.261 592.922,260.147C591.014,261.338 587.477,271.71 587.183,276.977C587.091,278.627 586.733,285.377 586.387,291.977C586.042,298.577 585.54,307.802 585.272,312.477C584.542,325.217 583.824,349.183 582.726,397.477C581.758,440.083 580.268,486.581 579.267,505.477C576.358,560.364 575.597,574.037 574.728,586.977C573.406,606.673 572.96,609.302 570.741,610.49C568.038,611.936 565.786,611.696 565.093,609.888L565.092,609.888Z" style="fill-rule:nonzero;"/>
        </g>
        <g id="Horace" transform="matrix(3.61201,0,0,3.61201,17,-229.347)">
            <path d="M537.144,587.139C536.96,592.819 536.673,612.402 533.545,612.368C530.267,612.332 529.743,599.754 529.863,591.909C530.002,582.881 529.869,328.254 531.14,310.041C532.53,290.128 531.579,280.585 527.668,275.186C524.03,270.163 524.033,269.022 527.691,267.507C529.301,266.84 531.396,265.435 532.346,264.385C533.995,262.563 533.953,262.373 531.418,260.195C528.157,257.392 528.114,256.435 531.123,253.608L533.484,251.39L531.669,244.625C530.473,240.165 530.048,236.176 530.423,232.918C531.247,225.751 530.597,219.265 530.215,208.477C529.52,188.873 531.794,169.439 529.307,168.493C526.216,167.318 526.035,165.204 528.863,163.326C530.748,162.075 530.855,161.525 529.909,157.954C529.329,155.767 528.76,151.164 528.645,147.727C528.501,143.455 528.253,142.245 527.166,141.477C526.597,141.074 514.484,131.738 513.095,129.116C511.607,126.307 512.729,120.531 515.046,119.072C516.389,118.226 517.622,118.433 520.457,119.977C522.476,121.077 524.333,122.652 524.583,123.477C524.861,124.395 527.972,130.18 528.838,132.237C530.838,136.986 534.391,138.957 539.292,138.037C543.155,137.313 546.198,134.35 547.22,131.147C550.842,119.802 553.138,117.087 555.987,115.507C558.441,114.146 558.872,114.157 560.333,115.618C561.225,116.51 561.376,118.05 561.465,119.108C561.796,123.025 560.31,123.55 558.545,126.387C556.451,129.753 551.499,137.252 549.057,141.625C548.238,143.093 547.811,148.822 547.734,159.936C547.724,161.35 548.997,163.477 549.34,163.477C551.408,163.477 551.514,165.725 549.539,167.701C548.522,168.717 552.821,202.617 552.641,214.477C552.46,226.41 550.539,247.306 549.263,251.227C548.846,252.504 553.325,255.522 550.742,258.5C549.654,259.756 548.763,261.596 548.763,262.591C548.763,264.612 552.46,268.477 554.393,268.477C555.081,268.477 555.935,268.946 556.29,269.52C556.7,270.184 557.427,272.101 553.692,274.843C551.514,276.442 551.029,280.07 551.001,283.015C550.947,288.79 537.497,576.229 537.144,587.139Z" style="fill-rule:nonzero;"/>
        </g>
        <g id="Malfoy" transform="matrix(3.61201,0,0,3.61201,12,-229.347)">
            <path d="M483.772,606.986C481.948,604.789 481.952,603.81 484.414,457.977C484.786,435.977 485.15,387.039 485.225,349.227C485.333,294.443 485.104,280.477 484.097,280.477C482.453,280.477 480.888,277.396 481.557,275.477C481.845,274.652 482.909,273.389 483.922,272.67C486.63,270.749 486.523,261.474 483.764,258.977C481.162,256.622 481.224,253.968 483.925,252.076C486,250.623 486.101,249.738 486.451,229.77C486.651,218.334 487.265,191.26 487.815,169.606L488.815,130.236L492.118,123.106C493.934,119.185 496.23,115.311 497.22,114.498C498.855,113.155 499.272,113.323 501.799,116.349C503.327,118.18 505.585,122.81 506.816,126.637C509.032,133.53 509.047,133.988 508.4,174.786C507.248,247.488 507.28,250.163 509.353,254.013C511.156,257.36 511.151,257.436 508.972,259.755C505.96,262.961 505.838,271.329 508.764,273.977C511.278,276.252 511.299,278.526 508.837,281.656C507.073,283.899 506.902,285.997 506.806,306.541C506.748,318.881 506.493,330.552 506.24,332.477C505.987,334.402 505.326,350.827 504.77,368.977C504.215,387.127 503.53,407.152 503.248,413.477C502.967,419.802 502.072,444.327 501.261,467.977C500.449,491.627 499.328,519.527 498.77,529.977C495.904,583.637 494.607,605.142 494.142,606.727C493.476,608.999 485.606,609.196 483.772,606.986L483.772,606.986Z" style="fill-rule:nonzero;"/>
        </g>
        <g id="Snape" transform="matrix(3.61201,0,0,3.61201,5,-229.347)">
            <path d="M455.027,613.305C452.894,612.726 451.619,611.667 451.289,610.201C450.502,606.703 450.184,558.475 450.948,558.476C451.325,558.476 451.651,542.164 451.673,522.227C451.695,502.289 451.97,478.102 452.285,468.477C452.6,458.852 453.517,419.477 454.324,380.977C455.131,342.477 455.823,300.169 456.362,286.977C457.086,269.232 458.147,258.959 457.143,258.689C456.342,258.474 456.324,256.924 456.45,252.862C456.693,245.042 456.286,245.323 455.348,245.105C455.001,245.024 454.716,244.173 454.716,243.81C454.719,238.369 454.955,232.2 455.022,225.977C455.127,216.077 455.225,203.139 455.239,197.226C455.254,191.314 456.289,132.302 458.021,131.01C458.783,130.441 459.997,127.167 460.72,123.733C461.443,120.299 462.537,116.802 463.151,115.962C464.293,114.401 470.593,113.635 472.517,114.824C473.103,115.186 474.149,118.65 474.841,122.52C475.533,126.39 476.811,130.378 477.681,131.381C479.038,132.945 479.238,136.479 479.085,156.092C478.773,195.895 477.215,234.015 476.833,243.477C476.78,244.81 477.134,245.839 476.374,245.849C474.385,245.874 474.982,245.451 475.033,251.478C475.058,254.517 475.266,259.201 474.316,259.283C471.582,259.52 472.618,255.371 471.795,313.977C471.462,337.631 470.533,363.952 470.249,372.477C469.965,381.002 469.302,403.052 468.774,421.477C468.246,439.902 467.57,461.952 467.271,470.477C466.972,479.002 465.818,513.877 464.706,547.977C463.594,582.077 462.502,610.51 462.28,611.161C461.557,613.285 458.396,614.219 455.027,613.305Z" style="fill-rule:nonzero;"/>
        </g>
        <g id="SiriusBlack" serif:id="Sirius Black" transform="matrix(3.61201,0,0,3.61201,5,-229.347)">
            <path d="M419.111,617.711C417.346,616.588 417.08,581.881 418.491,536.977C421.615,437.586 422.58,374.401 422.004,306.977C421.751,277.277 421.481,222.952 421.404,186.254C421.266,119.683 421.27,119.527 423.369,117.429C426.07,114.728 432.537,113.873 438.225,115.465C445.962,117.632 445.871,117.17 445.793,153.643C445.755,171.292 445.529,186.05 445.29,186.437C445.051,186.824 444.809,199.254 444.754,214.059C444.699,228.864 444.246,251.777 443.748,264.977C442.496,298.13 441.856,318.845 441.195,347.477C440.885,360.952 439.962,384.577 439.144,399.977C436.348,452.647 435.871,462.002 434.835,484.477C433.276,518.293 432.713,527.329 431.713,534.625C431.212,538.281 430.81,548.727 430.821,557.838C430.84,573.712 429.29,606.429 428.2,613.215C427.502,617.557 422.645,619.96 419.111,617.711Z" style="fill-rule:nonzero;"/>
        </g>
        <g id="Dumbledore" transform="matrix(3.61201,0,0,3.61201,5,-229.347)">
            <path d="M227.33,2514c-4.55,2.88,-22.82,7,-29.93,-0.62c-6.52,-7,-10.13,-221.48,-14,-227.42c-14.76,-22.77,-13.17,-96.85,2.4,-112.42c1.95,-1.94,3.53,-7.5,3.53,-12.36c0,-9.38,4.33,-245.09,5.22,-275.25c0.86,-29.47,-0.63,-38.89,-7.32,-46.28c-10.45,-11.55,-16.9,-38.46,-17,-71.16c-0.09,-20.4,2.12,-27.3,11.93,-37.1c6.62,-6.63,12,-14.08,12,-16.56s3.25,-5.77,7.22,-7.29s2,-27.5,2,-35.31c0.06,-10.5,8.18,-187.51,8,-233.32c0,-7.73,-4.1,-35.76,-9.2,-41.57c-20.92,-23.84,-34,-61.37,-17.67,-101.33c8.52,-20.87,29.57,-40.1,29,-83.63c-0.26,-19.4,5.61,-86.57,2.11,-149.08c-5.87,-105.13,-20.29,-78.84,-28.69,-100.94c-9.9,-26.06,-7.2,-38.22,-7.2,-42.23c0,-5.28,0.65,-47.73,17.89,-63.55c15.33,-14.06,15,-12.53,18.71,-86.42c2.12,-42.09,-2.4,-77.13,-3.92,-104.78c-3.78,-69,-14.42,-62.74,-18.63,-66.55c-9.56,-8.65,-14.05,-101.77,-14.05,-105.92c0,-5.43,33.72,-27.76,33.78,-44.22c0.06,-19.22,0.88,-47.21,-1.34,-105.11c-0.56,-14.72,-23.09,-34,-25.23,-79.14c-1.44,-30.52,31.28,-61.52,28.92,-68.94c-1.86,-5.82,-5.86,-19.37,-8.86,-30.16s-9.36,-23.4,-14,-28c-11,-11,-10.63,-20,1.22,-31.81c10.29,-10.3,16.06,-11.23,31.3,-5c6.5,2.63,12.47,1.41,18.34,-3.76c11.26,-9.88,34.69,-8,51.84,4.24c21.25,15.13,22,26.11,4.3,62.7l-15.74,32.54l15.18,22.91c19.3,29.14,20.24,55.54,3.14,87.67c-8.77,16.46,-13.5,28.62,-11.83,56.21c0.54,8.79,-0.21,19.47,-0.21,32.66c0,37,1.95,66.26,4.42,66.26s8.94,7.3,14.45,16.22c8.19,13.26,10,24.07,10,59.13c0,44.08,-6.83,64.32,-21.72,64.32c-9.13,0,-11.06,15.67,-15.12,122.8c-4.4,115.94,-4.46,115,8.57,133.32c20.43,28.69,17.16,87.86,-6.64,120.1c-8.37,11.34,-9.83,26.61,-14.49,151.79l-5.19,139.18l14.04,21.18c18.48,28,18.83,59.88,1.05,97c-6.89,14.36,-13.65,30.44,-15,35.73s-3.92,69.23,-5.65,142.08l-3.14,132.44l12.85,27.92c16.93,36.8,17.12,69.7,0.56,94.73c-13.55,20.47,-13.94,24.19,-22.68,214.53c-4.93,107.23,-4.68,123.34,2.21,146.56c10,33.62,9.77,45.62,-1.56,82.83c-7.64,25.14,-9.68,49.85,-11.39,138.29c-1.67,84.65,-3.54,108.52,-8.78,111.89z" style="fill-rule:nonzero;"/>
        </g>
        <g id="Dumbledore2" transform="matrix(3.61201,0,0,3.61201,5,-229.347)">
            <path d="M356.632,276.82C357.189,276.289 357.673,233.249 357.258,227.616C356.947,223.389 356.031,220.034 354.527,217.616C352.813,214.86 352.218,212.278 352.075,206.977C351.823,197.65 353.163,193.582 356.921,192.272C359.787,191.273 359.862,191.074 359.811,184.612C359.78,180.962 359.814,174.798 359.886,170.912C359.957,167.027 359.33,161.402 358.495,158.412C355.376,147.252 356.329,140.498 361.425,137.646C362.815,136.869 362.756,136.283 360.899,132.374C359.751,129.956 357.908,126.423 356.805,124.525C355.28,121.901 355.095,120.885 356.032,120.29C356.709,119.86 356.871,119.5 356.392,119.492C354.654,119.462 358.057,116.477 359.83,116.477C360.958,116.477 363.771,115.263 366.832,115.06C371.234,114.766 376.149,115.551 377.303,116.509C379.603,118.418 379.024,123.046 375.764,128.823C374.114,131.746 372.764,134.695 372.764,135.374C372.764,136.054 373.953,138.169 375.406,140.074C377.825,143.246 377.997,144.077 377.447,149.966C377.117,153.501 375.874,158.302 374.684,160.633C372.814,164.299 372.504,166.671 372.392,178.15L372.264,191.426L378.781,197.379L378.387,205.789C378.024,213.525 376.457,218.373 373.641,220.477C372.699,221.18 370.968,228.057 370.244,233.977C369.957,236.317 369.227,264.985 368.816,276.52C370.275,277.663 371.075,279.184 372.14,282.627C374.61,290.615 373.695,297.533 369.312,304C367.346,306.901 367.264,308.403 367.264,341.284C367.264,365.274 367.597,375.76 368.373,376.261C368.983,376.655 370.097,378.695 370.849,380.795C372.096,384.282 372.011,385.151 369.862,390.795C365.696,401.744 366.842,440.993 367.69,456.974C368.078,464.276 368.907,466.105 370.059,468.576C371.951,472.635 371.114,480.632 369.161,484.048C367.47,487.005 366.424,488.13 366.124,499.85C365.881,509.359 366.492,520.977 366.492,520.977C366.566,531.471 366.647,542.268 366.711,550.324C366.731,552.827 366.544,555.494 368.035,559.312C369.054,561.92 368.078,566.528 367.401,568.352C366.205,571.577 365.652,575.357 365.785,580.977C365.916,586.51 364.557,596.602 364.422,603.477C364.133,618.153 363.115,621.477 358.906,621.477C356.968,621.477 355.853,620.893 355.564,619.727L355.564,619.727C355.325,618.764 355.358,610.777 355.636,601.977C356.454,576.053 356.287,571.305 354.441,567.977C352.4,564.299 352.346,561.912 354.185,556.7C355.219,553.771 355.636,547.116 355.715,532.324C355.775,521.133 356.079,506.55 356.391,499.918C356.942,488.192 357.577,488.012 355.509,484.918C351.831,479.415 352.394,473.158 354.199,469.007C356.219,464.357 355.573,464.748 355.303,441.587C355.157,429.147 355.993,408.664 355.906,405.227C355.7,397.03 354.751,390.587 353.648,389.905C352.496,389.193 352.498,381.759 353.65,381.047C354.138,380.745 354.598,371.831 354.673,361.238C354.797,343.577 356.07,316.102 357.243,305.733C357.249,305.685 357.254,305.637 357.259,305.59C356.947,305.502 356.655,305.392 356.396,305.255C354.531,304.278 353.13,300.193 352.608,297.817C351.883,294.516 351.727,289.129 352.045,285.454C352.559,279.53 356.038,276.932 356.632,276.82Z" style="fill-rule:nonzero;"/>
        </g>
        <g id="HarryPotter" serif:id="Harry Potter" transform="matrix(3.61201,0,0,3.61201,5,-229.347)">
            <path d="M320.252,582.227C320.679,565.589 321.14,548.152 321.277,543.477C321.821,524.81 322.444,410.713 322.166,399.392C321.954,390.778 322.037,380.583 321.891,363.168C321.868,360.413 321.573,345.104 321.552,342.198C321.431,325.385 321.349,314.662 321.322,294.977C321.268,255.452 321.119,251.765 319.482,249.356C318.293,247.605 317.584,245.726 317.119,242.163C316.669,238.72 317.072,233.741 317.037,229.037C317.003,224.282 318.763,220.082 319.648,216.391C320.848,211.387 320.86,142.347 319.045,141.739C318.375,141.515 317.52,139.676 317.145,137.654C316.771,135.631 315.124,131.412 313.487,128.277C311.837,125.118 310.784,121.864 311.125,120.976C311.967,118.78 319.712,115.507 325.758,114.791C329.152,114.389 332.503,114.75 336.216,115.918C340.785,117.355 342.179,118.39 344.722,122.228C346.394,124.754 347.763,127.7 347.763,128.777C347.763,129.853 345.973,133.357 343.785,136.562L339.807,142.39L340.356,157.683C340.659,166.095 341.093,184.599 341.322,198.804C341.689,221.584 341.965,225.146 343.669,228.997C347.159,236.887 346.835,245 342.868,249.058L339.972,252.02L339.325,291.998C338.968,313.986 338.188,336.455 337.591,341.929C336.937,347.917 336.809,355.883 337.269,361.929C337.69,367.455 338.111,373.102 338.205,374.477C338.299,375.852 338.011,378.024 337.565,379.304C337.119,380.583 336.772,384.633 336.794,388.304C336.95,414.607 336.733,435.716 336.299,436.419C335.917,437.036 335.599,519.03 335.942,528.477C335.972,529.302 335.713,531.327 335.367,532.977C335.021,534.627 334.108,552.082 333.339,571.766C332.369,596.601 332.024,606.288 330.206,610.065C329.647,611.228 327.391,612.408 325.075,612.493C322.434,612.59 319.728,611.457 319.625,610.643C318.984,605.601 320.252,582.227 320.252,582.227Z" style="fill-rule:nonzero;"/>
        </g>
        <g id="Hermione" transform="matrix(3.61201,0,0,3.61201,5,-229.347)">
            <path d="M292.391,620.227C291.344,618.566 290.827,612.737 290.417,597.977C289.693,571.912 287.958,520.963 287.318,506.977C287.041,500.927 286.761,478.877 286.696,457.977C286.631,437.077 286.227,419.077 285.797,417.977C285.367,416.877 285.423,415.192 285.922,414.232C286.421,413.272 286.804,405.172 286.773,396.232C286.712,378.135 286.556,375.203 285.618,374.477C285.263,374.202 285.632,370.602 286.438,366.477C287.382,361.644 287.674,356.665 287.26,352.477C286.039,340.13 285.719,306.638 286.778,301.916C287.942,296.721 288.255,278.081 287.207,276.385C286.332,274.968 286.058,259.476 286.908,259.477C287.263,259.477 287.537,258.464 287.518,257.227C287.5,255.989 287.516,250.477 287.555,244.977C287.635,233.578 287.392,229.945 286.332,226.655C285.822,225.072 286.099,223.764 287.202,222.545C288.554,221.051 288.623,220.28 287.622,217.867C286.316,214.718 285.778,191.477 287.011,191.477C287.422,191.477 287.581,186.548 287.365,180.523C287.148,174.499 287.294,166.833 287.688,163.489C288.236,158.843 288.057,156.913 286.931,155.304C285.901,153.834 285.75,152.714 286.431,151.588C286.967,150.702 287.354,145.814 287.289,140.727C287.225,135.639 287.53,131.477 287.968,131.477C288.406,131.477 288.764,131.027 288.764,130.477C288.764,129.927 288.202,129.589 287.514,129.727C286.629,129.904 286.239,128.168 286.177,123.781C286.095,118.018 286.27,117.511 288.677,116.526C290.1,115.944 293.964,115.247 297.264,114.978C301.997,114.592 303.92,114.888 306.37,116.38L309.475,118.272L309.348,127.346C309.275,132.548 308.742,136.899 308.099,137.542C307.303,138.338 307.269,139.722 307.984,142.312C308.692,144.874 308.653,146.895 307.854,149.104C307.01,151.439 307.003,154.534 307.828,161.113C309.17,171.821 309.069,185.753 307.617,190.309C306.772,192.96 306.908,194.566 308.285,198.172C309.632,201.698 309.83,203.842 309.178,207.84C308.384,212.712 308.19,233.365 308.805,247.477C308.961,251.052 309.023,256.902 308.942,260.477C308.862,264.052 308.856,270.352 308.931,274.477C309.117,284.933 308.059,308.194 307.344,309.351C307.018,309.878 307.238,311.584 307.833,313.143C308.637,315.25 308.587,316.97 307.64,319.849C306.566,323.11 306.629,325.002 308.038,331.849C309.731,340.078 309.532,343.277 307.088,347.073C306.052,348.681 305.778,353.912 305.91,369.573C306.005,380.795 306.445,390.705 306.889,391.595C307.68,393.182 306.881,406.601 304.753,427.477C304.058,434.298 304.021,438.723 304.648,440.107C305.259,441.454 305.298,449.907 304.755,463.107C302.142,526.602 300.798,573.418 300.778,601.727C300.767,617.134 300.606,618.637 298.766,620.477C296.157,623.086 294.147,623.007 292.393,620.227L292.391,620.227Z" style="fill-rule:nonzero;"/>
        </g>
        <g id="Ron" transform="matrix(3.61201,0,0,3.61201,5,-229.347)">
            <path d="M255.417,613.212C253.85,612.067 253.711,609.74 253.934,588.462C254.357,548.157 253.913,436.075 253.139,387.977C252.732,362.677 252.545,339.952 252.723,337.477C253.122,331.937 253.112,330.024 252.362,266.977C251.726,213.509 251.182,198.691 249.79,196.998C249.328,196.436 249.071,191.927 249.218,186.977C249.366,182.027 249.081,177.459 248.586,176.827C246.977,174.773 248.764,161.883 248.764,160.837C248.764,159.618 249.764,156.121 249.764,154.463C249.764,152.806 249.352,150.668 248.848,149.713C245.069,142.549 244.281,129.877 245.898,124.727C246.858,121.67 248.993,120.012 251.135,118.172C254.862,114.969 260.104,113.427 263.729,114.467C265.315,114.922 266.817,115.09 267.066,114.841C268.122,113.786 276.806,123.884 277.856,127.389C279.014,131.254 278.001,138.143 274.655,149.165C273.622,152.568 273.629,154.863 274.691,161.402C275.41,165.829 275.72,171.819 275.382,174.714C275.043,177.608 274.52,182.902 274.221,186.477C273.921,190.052 273.234,197.27 272.693,202.516C269.861,229.999 269.477,243.836 268.225,363.477C267.963,388.502 267.708,411.902 267.658,415.477C267.608,419.052 267.611,424.677 267.664,427.977C268.014,449.524 266.154,519.271 264.798,535.477C264.223,542.352 263.685,559.608 263.604,573.825C263.472,596.769 263.019,604.062 261.221,612.227C260.668,614.74 258.102,615.176 255.417,613.212L255.417,613.212Z" style="fill-rule:nonzero;"/>
        </g>
        <g id="Luna" transform="matrix(3.61201,0,0,3.61201,5,-229.347)">
            <path d="M229.764,609.477C228.344,610.896 224.061,611.824 221.823,610.295C219.994,609.046 220.026,605.479 219.986,604.831C219.079,590.218 218.303,510.597 218.531,439.795C218.72,380.84 218.123,364.365 216.726,322.711C216.571,318.095 214.676,315.188 214.318,313.269C213.854,310.78 214.615,303.305 216.764,301.977C217.314,301.637 219.214,273.384 219.154,261.456C219.122,255.057 218.585,242.946 218.585,242.946L217.198,240.461C215.733,237.839 215.638,234.353 216.072,232.247C216.434,230.489 217.185,228.873 215.804,225.934C214.618,223.413 213.199,220.161 213.017,218.101C211.094,196.383 214.058,184.321 215.784,174.977C216.82,169.365 217.882,161.84 219.313,149.977C219.645,147.227 220.596,121.645 220.288,118.755C219.926,115.354 221.814,114.63 224.393,116.964C226.373,118.756 230.957,114.477 232.113,114.477C232.481,114.477 234.2,113.661 234.87,116.444C235.04,117.15 235.352,119.765 236.212,120.633C237.072,121.501 239.327,119.306 239.743,120.556C240.187,121.89 238.875,128.636 238.875,128.636C237.591,136.41 238.607,160.247 241.369,187.136C242.758,200.661 242.765,203.14 241.432,210.136C239.952,217.906 239.024,220.644 236.236,225.477C235.362,226.991 234.785,230.737 234.773,234.977C234.76,239.149 234.158,243.114 233.283,244.792C232.053,247.15 231.915,251.787 232.429,273.292C232.962,295.542 230.996,298.542 233.417,301.2C235.598,303.594 235.841,306.52 235.678,310.696C235.474,315.918 233.719,313.574 233.608,326.102C233.506,337.626 233.633,361.955 233.173,427.477C232.39,539.139 232.193,565.064 231.928,591.227C231.779,606.019 231.585,607.656 229.764,609.477Z" style="fill-rule:nonzero;"/>
        </g>
        <g id="Voldemort" transform="matrix(3.61201,0,0,3.61201,5,-229.347)">
            <path d="M163.516,204.816C163.225,200.152 162.944,194.263 162.623,190.477C162.323,186.949 162.17,183.376 161.352,179.931C160.363,175.764 158.955,169.552 156.686,165.477C154.511,161.569 149.926,157.977 147.738,155.477C146.309,153.843 144.04,152.595 143.564,150.477C142.777,146.977 142.505,138.143 143.019,134.477C143.344,132.162 144.558,129.52 146.649,128.477C148.927,127.34 154.085,128.255 156.686,127.658C158.708,127.193 161.028,126.098 162.26,124.891C163.41,123.764 162.984,121.599 164.075,120.414C165.619,118.736 168.911,115.491 171.526,114.824C174.14,114.158 177.375,115.115 179.764,116.417C182.153,117.718 184.387,121.562 185.857,122.635C186.592,123.172 187.672,122.932 188.579,122.853C191.121,122.632 197.776,121.082 201.104,121.305C203.759,121.483 206.588,122.39 208.546,124.191C210.736,126.206 211.523,136.775 209.998,135.941C208.502,135.124 206.768,134.134 205.097,134.477C203.04,134.899 199.708,136.549 197.655,138.477C194.993,140.977 191.09,145.388 189.124,149.477C187.645,152.551 186.798,156.042 186.277,159.548C186.96,161.457 187.48,162.9 187.775,163.636C190.145,169.55 184.2,224.12 184.346,224.356C184.768,225.039 186.658,241.237 187.702,244.735C189.296,250.078 194.764,259.958 194.764,260.092C194.764,261.386 191.014,263.477 188.693,263.477C186.583,263.477 185.755,263.966 185.731,265.227C185.713,266.189 184.873,269.367 183.864,272.288C183.586,273.093 182.684,313.109 181.546,365.648C181.539,365.985 181.055,367.703 181.048,368.041C179.044,460.591 176.795,589.859 175.453,614.057C175.375,615.463 174.886,616.378 174.222,616.93C172.568,618.306 169.824,617.43 169.62,616.295C168.621,610.737 168.343,453.502 168.134,370.829C168.131,369.921 167.991,365.583 167.941,364.696C166.485,338.785 165.679,266.477 164.996,266.477C163.474,266.477 160.514,267.642 158.418,269.066C153.399,272.477 151.003,271.658 154.275,266.516C159.691,258.006 161.359,236.672 161.359,236.068C161.359,235.153 162.317,219.186 163.516,204.816Z" style="fill-rule:nonzero;"/>
        </g>
        <g id="Krum" transform="matrix(3.61201,0,0,3.61201,5,-229.347)">
            <path d="M116.77,607.478C114.75,607.478 112.506,607.404 111.813,604.242C111.223,601.553 111.807,588.097 111.807,587.17C111.807,585.532 120.509,384.375 121.094,381.35C121.549,378.996 126.921,315.005 129.196,286.293C129.255,285.55 128.528,284.395 128.582,283.702C128.746,281.619 128.493,277.929 129.701,276.97C130.47,276.36 130.568,273.907 130.715,271.213C131.072,264.672 133.99,234.047 136.935,222.884C139.186,214.356 140.33,202.261 137.091,191.576C135.72,187.055 133.521,184.758 129.74,179.739C124.556,172.858 111.775,162.11 110.463,159.854C102.977,146.981 106.71,129.811 107.927,125.803C109.595,120.309 115.794,119.365 123.553,119.109C126.694,119.005 130.852,119.553 131.571,119.105C132.289,118.657 133.961,118.562 135.285,118.894C137.846,119.537 137.784,121.428 135.1,124.571C134.351,125.446 132.358,129.947 130.669,134.571C127.972,141.958 127.734,143.426 128.704,146.67C129.947,150.824 137.306,157.777 142.461,159.669C145.05,160.619 146.433,162.379 149.742,168.935C151.988,173.386 154.482,179.491 155.283,182.503C157.932,192.458 156.795,219 152.177,254.978C151.259,262.128 150.032,267.175 149.837,271.507C149.808,272.149 149.031,276.676 149.348,277.318C149.843,278.319 149.331,284.328 148.919,284.855C148.743,285.079 148.019,285.847 147.817,286.533C147.462,287.735 147.629,289.227 147.409,290.978C147.062,293.728 146.321,299.353 145.763,303.478C144.052,316.108 140.899,344.318 139.783,356.978C139.201,363.578 138.283,372.803 137.742,377.478C136.682,386.642 136.271,391.725 131.788,450.978C126.773,517.256 127.064,512.43 123.803,583.478C122.808,605.158 122.128,607.478 116.77,607.478Z" style="fill-rule:nonzero;"/>
        </g>
        <g id="Fleur" transform="matrix(3.61201,0,0,3.61201,13,-229.347)">
            <path d="M74.751,611.452C74.208,610.438 73.764,605.776 73.764,601.091C73.764,596.407 73.157,590.19 72.416,587.276C71.07,581.987 71.056,577.45 72.308,553.336C72.708,545.629 72.442,533.92 71.629,523.336C70.764,512.097 70.423,494.846 70.66,474.406C70.911,452.693 70.682,442.193 69.926,440.779C68.742,438.568 67.977,410.559 69.053,408.819C69.813,407.588 69.837,373.61 69.087,357.977C68.797,351.927 69.039,340.002 69.624,331.477C70.371,320.592 70.375,312.106 69.639,302.977C69.061,295.827 68.598,288.723 68.61,287.191C68.622,285.659 67.987,282.861 67.198,280.973C65.491,276.887 65.325,268.036 66.872,263.597C67.868,260.741 67.716,260.155 65.372,257.812C62.226,254.666 61.975,250.447 64.625,245.249C65.993,242.568 66.192,241.299 65.375,240.47C64.559,239.641 64.662,239.028 65.764,238.159C69.327,235.35 70.004,233.307 70.332,224.366C70.517,219.347 70.23,212.934 69.696,210.114C68.884,205.833 64.72,198.003 60.618,193.043C56.708,188.316 51.615,178.676 49.487,171.977C44.381,155.899 47.947,134.254 57.1,125.769C63.382,119.946 75.56,117.881 83.544,120.445C85.622,121.112 87.418,121.897 88.842,122.943C90.775,124.364 94.553,127.39 98.022,134.428C100.745,139.953 101.226,141.993 101.1,147.477C100.942,154.347 98.803,161.672 96.074,164.688C94.548,166.373 94.584,166.657 96.6,168.802C98.957,171.311 99.463,176.302 97.695,179.607C97.07,180.774 96.988,182.098 97.497,182.791C97.976,183.443 98.488,185.405 98.634,187.15C98.84,189.614 98.074,191.235 95.206,194.41L91.513,198.498L91.637,209.737C91.76,220.811 91.91,222.508 93.026,225.477C93.337,226.302 94.361,229.978 95.304,233.646C97.322,241.502 96.742,246.162 93.225,250.342C90.245,253.883 90.189,254.621 92.764,256.477C93.864,257.27 94.764,258.971 94.764,260.257C94.764,261.543 95.182,262.337 95.692,262.021C98.597,260.227 98.693,275.549 95.817,281.862C94.688,284.34 93.764,287.629 93.763,289.172C93.762,290.715 93.117,295.638 92.33,300.112C91.543,304.586 90.63,313.811 90.303,320.612C89.976,327.413 89.503,336.577 89.253,340.977C89.002,345.377 88.56,359.102 88.27,371.477C87.981,383.852 87.528,400.277 87.264,407.977C87,415.677 86.509,435.027 86.173,450.977C85.836,466.927 85.23,488.527 84.825,498.977C84.421,509.427 83.953,530.127 83.786,544.977C83.62,559.827 83.35,573.777 83.187,575.977C83.025,578.177 82.601,586.052 82.246,593.477C81.891,600.902 81.151,608.172 80.601,609.632C79.343,612.97 76.103,613.978 74.751,611.452L74.751,611.452ZM71.305,186.727C71.624,185.214 72.287,183.228 72.78,182.312C73.388,181.18 73.209,180.261 72.219,179.44C69.715,177.361 70.446,171.908 73.731,168.167L76.698,164.788L73.875,162.083C68.362,156.802 67.42,147.726 71.806,142.151C74.203,139.103 79.89,137.052 83.783,137.831C89.918,139.058 87.15,132.614 80.178,129.438C69.162,124.419 58.173,130.338 54.838,143.086C53.652,147.619 54.028,159.183 55.617,167.038C56.64,172.098 59.626,178.459 60.983,178.471C61.379,178.474 63.286,180.952 65.221,183.977C67.156,187.002 69.186,189.477 69.733,189.477C70.279,189.477 70.987,188.239 71.305,186.727Z" style="fill-rule:nonzero;"/>
        </g>
        <g id="Bellatrix" transform="matrix(3.61201,0,0,3.61201,8,-229.347)">
            <path d="M31.074,592.727C30.674,591.214 30.387,582.327 30.437,572.977C30.487,563.627 30.717,523.127 30.947,482.977C31.177,442.827 31.034,400.077 30.628,387.977C30.178,374.539 30.269,364.273 30.861,361.598C31.394,359.19 32.069,353.34 32.36,348.598C32.652,343.856 33.762,332.071 34.827,322.409C35.892,312.747 36.764,302.043 36.764,298.623C36.764,292.551 32.652,265.948 30.79,259.977C30.276,258.327 29.361,251.352 28.756,244.477C27.424,229.314 26.183,222.613 23.696,217.135C22.658,214.848 21.798,211.741 21.786,210.231C21.76,207.102 18.258,196.453 15.782,191.977C14.168,189.06 10.333,178.253 3.773,158.14C2.008,152.729 0.78,147.176 1.043,145.799C1.306,144.421 1.054,142.052 0.479,140.533C-0.418,138.157 -0.174,137.262 2.229,134.111C3.765,132.098 6.056,130.191 7.319,129.873C8.583,129.556 10.395,128.437 11.345,127.387C12.296,126.336 13.797,125.477 14.681,125.477C15.565,125.477 19.842,124.349 24.186,122.97C28.53,121.591 32.276,120.656 32.511,120.89C32.746,121.126 33.299,124.166 33.739,127.647C34.18,131.128 35.005,135.102 35.572,136.477C36.14,137.852 37.148,141.902 37.814,145.477C38.479,149.052 40.489,156.477 42.281,161.977C46.292,174.287 48.852,190.837 49.398,207.977C49.626,215.127 50.279,223.452 50.848,226.477C53.157,238.738 54.135,243.025 54.841,243.977C58.551,248.983 61.812,282.977 61.812,282.977C62.658,287.108 61.51,308.048 59.812,319.469C59.282,323.04 59.102,326.975 59.413,328.214C59.765,329.615 58.992,332.354 57.371,335.453C55.784,338.489 54.527,342.892 54.157,346.708C53.823,350.156 53.371,353.274 53.154,353.636C52.774,354.268 52.303,365.012 51.272,396.477C51.011,404.452 50.343,413.677 49.787,416.977C49.231,420.277 48.773,425.1 48.77,427.695C48.766,431.226 49.872,434.063 48.768,436.967C47.498,440.306 45.954,455.887 45.249,472.477C44.91,480.452 44.191,492.377 43.651,498.977C43.11,505.577 42.502,513.002 42.3,515.477C42.098,517.952 41.433,526.952 40.823,535.477C40.213,544.002 39.278,554.577 38.746,558.977C38.213,563.377 37.327,572.514 36.776,579.283C35.809,591.168 34.737,595.477 32.748,595.477C32.228,595.477 31.475,594.239 31.074,592.727L31.074,592.727Z" style="fill-rule:nonzero;"/>
        </g>
    </g>
</svg>
